<svg width="33" height="33" viewBox="0 0 33 33" fill="none" xmlns="http://www.w3.org/2000/svg">
<path d="M14.3454 5.83337H8.88101C8.07273 5.83337 7.29755 6.15446 6.72602 6.726C6.15448 7.29754 5.83339 8.07271 5.83339 8.88099V14.3454C5.83347 14.7495 5.99407 15.137 6.27986 15.4227L16.6311 25.7739C17.2026 26.3453 17.9776 26.6662 18.7858 26.6662C19.5939 26.6662 20.3689 26.3453 20.9404 25.7739L25.774 20.9404C26.3453 20.3689 26.6663 19.5939 26.6663 18.7858C26.6663 17.9776 26.3453 17.2026 25.774 16.6311L15.4227 6.27985C15.137 5.99406 14.7495 5.83346 14.3454 5.83337Z" fill="#9FAAA4" stroke="#05400F" stroke-width="1.52381" stroke-linecap="round" stroke-linejoin="round"/>
<path d="M9.64294 11.1668C8.80136 11.1668 8.11913 10.4845 8.11913 9.64295C8.11913 8.80137 8.80136 8.11914 9.64294 8.11914C10.4845 8.11914 11.1667 8.80137 11.1667 9.64295C11.1667 10.4845 10.4845 11.1668 9.64294 11.1668Z" fill="#05400F"/>
</svg>
