<svg width="294" height="160" viewBox="0 0 294 160" fill="none" xmlns="http://www.w3.org/2000/svg">
<path d="M119.133 51.4667C117.133 54 116.333 56.9334 116.333 61.4667V68H70.8667C42.2 68 24.6 68.5334 22.8667 69.3334C20.6 70.5334 20.3333 72.2667 20.3333 83.3334C20.3333 95.8667 20.3333 96 17.1333 96C12.7333 96 12.2 97.3334 13.9333 103.067C15.1333 107.2 16.0667 108 19 108C21 108 23.4 108.8 24.2 109.867C25.9333 111.867 35.5333 114.667 40.8667 114.667C43.8 114.667 44.3333 115.2 44.3333 118.8C44.3333 127.733 52.7333 136.667 63.4 139.2C72.6 141.333 85.6667 133.467 88.4667 123.867L90.0667 118.667L149.933 118.4L209.8 118L211 122.8C213.8 132.8 221.8 138.667 233 138.667C243 138.667 251 132.933 254.2 123.333C255.8 118.8 256.467 118.267 261 118C268.6 117.6 271.4 113.467 270.467 104C270.067 100 269.8 93.0667 269.8 88.5334C269.8 82.5334 269.133 80 267.4 78.4C264.2 75.6 253.933 73.6 234.2 72C215.667 70.5334 213.8 70 200.733 61.8667C180.067 48.9334 179 48.6667 148.867 48.2667L122.067 47.8667L119.133 51.4667ZM177.8 53.0667C180.467 54 187.667 57.7334 193.8 61.4667C211.533 72.4 214.467 73.3334 235.533 75.3334C258.733 77.6 262.333 78.2667 260.333 80.6667C259.533 81.6 259 86 259.267 90.2667C259.667 97.3334 259.933 98 263 98.4C270.467 99.4667 268.467 101.333 259.933 101.333C252.733 101.333 250.2 100.667 246.2 98C237.267 92 226.733 92.2667 218.333 98.9334C214.6 101.867 209.267 111.733 210.467 113.6C210.867 114.133 190.467 114.667 165.133 114.667H119V105.333V96H160.6C183.4 96 201.8 95.6 201.4 95.2C200.867 94.8 182.2 94.5334 159.667 94.6667L118.733 94.8L119.267 74.8C119.667 60.5334 120.333 54.2667 121.667 52.6667C123.267 50.6667 126.333 50.5334 148.2 51.0667C161.933 51.3334 175.133 52.2667 177.8 53.0667ZM73.1333 72H116.333V83.4667V94.9334L106.467 94.5334C101 94.2667 96.0667 94.5334 95.5333 95.0667C95 95.6 99.4 96 105.4 96H116.333V105.333V114.667H103C91.4 114.667 89.6667 114.4 89.6667 112.4C89.6667 111.2 88.2 107.733 86.3333 104.533C77.4 89.2 53.6667 90.4 46.4667 106.533C44.4667 110.8 43.4 111.867 41.1333 111.333C39.5333 111.067 35.9333 110.4 33 110C30.0667 109.467 26.3333 107.867 24.7333 106.4C23.1333 104.8 20.8667 104 19.8 104.4C18.6 104.933 17.6667 105.067 17.6667 104.8C17.6667 104.4 17.2667 103.333 16.8667 102.133C16.2 100.533 16.8667 100 19.5333 100C22.4667 100 23 99.4667 23 96C23 92.6667 23.5333 92 26.3333 92C29.5333 92 29.6667 91.7334 29.6667 82.6667C29.6667 73.3334 29.6667 73.3334 26.0667 73.3334C23.1333 73.3334 22.7333 73.0667 24.3333 72C25.4 71.3334 27.1333 70.9334 28.0667 71.3334C29.1333 71.7334 49.4 72 73.1333 72ZM27 83.3334C27 89.2 26.6 90.4 25 89.8667C23.5333 89.3334 23 87.0667 23 82.5334C23 77.6 23.5333 76 25 76C26.6 76 27 77.7334 27 83.3334ZM267 85.6C267 92 265.667 96 263.533 96C262.2 96 261.667 94 261.667 88.6667C261.667 82.2667 261.933 81.3334 264.333 81.3334C266.467 81.3334 267 82.2667 267 85.6ZM76.3333 99.8667C93.5333 108.933 86.6 135.333 67 135.333C56.3333 135.333 47.9333 127.2 47.9333 116.933C47.9333 101.867 63.1333 92.8 76.3333 99.8667ZM242.733 100C255.133 107.6 255.4 124.8 243.133 132.933C230.333 141.467 212.467 130.933 213.533 115.467C213.933 109.467 217.533 103.067 222.067 100.133C227.667 96.5334 237 96.5334 242.733 100ZM268.333 107.2C268.333 111.733 265 114.667 259.8 114.667C255.933 114.667 255.4 114.133 254.067 109.333L252.733 104H260.467C267.933 104 268.333 104.133 268.333 107.2Z" fill="#05400F"/>
<path d="M126.2 55.2C125.8 56.1334 125.667 60.2667 125.933 64.1334L126.333 71.3334L138.733 71.7334L151 72.1334V62.6667V53.3334H139C129.933 53.3334 126.733 53.8667 126.2 55.2ZM149 62.6667V70H139H129L128.6 62.2667L128.2 54.5334L138.6 54.9334L149 55.3334V62.6667Z" fill="#05400F"/>
<path d="M157.133 55.4667C156.067 58.1333 156.067 67.2 157.133 69.8667C157.8 71.7333 161.133 72 180.467 72C192.867 72 203 71.6 203 70.9333C202.867 69.2 185.933 58.5333 179 55.8667C170.6 52.6667 158.333 52.4 157.133 55.4667ZM182.2 59.8667C186.6 62 192.2 65.3333 194.333 67.2L198.333 70.6667L179 70.2667L159.667 70L159.267 64.1333C158.6 55.0667 159.267 54.1333 167.267 55.0667C171 55.6 177.667 57.7333 182.2 59.8667Z" fill="#05400F"/>
<path d="M206.6 78.2667C207.133 80.4 207.533 86.5334 207.533 92C207.533 97.4667 207.133 103.6 206.6 105.6C206.067 107.733 206.2 109.333 206.867 109.333C208.733 109.333 209.667 104 209.667 92C209.667 80 208.733 74.6667 206.867 74.6667C206.2 74.6667 206.067 76.2667 206.6 78.2667Z" fill="#05400F"/>
<path d="M126.333 108C125.8 108.933 138.067 109.333 162.333 109.333C186.6 109.333 198.867 108.933 198.333 108C197.8 107.2 184.333 106.667 162.333 106.667C140.333 106.667 126.867 107.2 126.333 108Z" fill="#05400F"/>
<path d="M46.0667 82.9334C45.8 83.6 45.8 84 46.2 84C46.6 84 55.1333 84.1334 65 84.1334C87.5333 84.1334 86.2 84.1334 85.4 83.2C84.2 82.1334 46.8667 81.8667 46.0667 82.9334Z" fill="#05400F"/>
<path d="M58.8667 107.867C52.2 114.533 54.2 124.4 63 128C70.8667 131.2 79 125.067 79 115.867C79 112 78.0667 110.133 74.8667 107.467C69.4 102.8 63.8 102.933 58.8667 107.867ZM73 110.667C76.2 114.267 75.9334 120 72.3334 122.933C68.6 126 65.4 126 61.9334 122.933C57.8 119.333 57.2667 115.6 60.4667 111.6C63.8 107.2 69.5334 106.8 73 110.667Z" fill="#9DEAA9"/>
<path d="M73 110.667C76.2 114.267 75.9334 120 72.3334 122.933C68.6 126 65.4 126 61.9334 122.933C57.8 119.333 57.2667 115.6 60.4667 111.6C63.8 107.2 69.5334 106.8 73 110.667Z" fill="#9DEAA9"/>
<path d="M227.133 105.867C220.067 109.867 218.6 117.733 223.8 123.867C226.6 127.333 228.2 128 233 128C240.2 128 244.333 123.6 244.333 116C244.333 112 243.533 110.133 240.2 107.467C235.667 103.6 231.933 103.2 227.133 105.867ZM240.2 112.267C244.6 120.133 236.467 128.267 228.6 123.867C224.067 121.333 223 114.4 226.467 110.533C230.067 106.533 237.667 107.6 240.2 112.267Z" fill="#9DEAA9"/>
<path d="M240.2 112.267C244.6 120.133 236.467 128.267 228.6 123.867C224.067 121.333 223 114.4 226.467 110.533C230.067 106.533 237.667 107.6 240.2 112.267Z" fill="#9DEAA9"/>
</svg>
