<svg width="294" height="188" viewBox="0 0 294 188" fill="none" xmlns="http://www.w3.org/2000/svg">
<path d="M81.4 59.8666C68.4667 61.0666 57.4 62.4 56.8667 62.9333C56.3333 63.4666 56.6 64.8 57.4 65.7333C58.6 67.2 57.5333 68.2666 51.9333 70.8C43 74.9333 35.4 81.7333 34.3333 86.8C33.8 88.9333 31.8 92.6666 29.9333 94.9333C26.6 98.8 26.3333 100.133 26.3333 111.067C26.3333 122.4 26.4667 123.067 30.0667 126.133C32.8667 128.533 35.4 129.333 40.3333 129.333C46.2 129.333 47 129.733 49.4 133.6C56.2 144.533 71.9333 146.667 80.7333 137.867L84.2 134.4L146.467 134.667L208.733 134.8L212.467 138C221.133 145.2 231.4 145.2 239.933 138.133C242.867 135.733 245.933 134.933 254.2 134.133C260.067 133.733 266.2 132.4 267.933 131.333C270.733 129.467 271 128.267 271 119.2C271 104.533 266.067 96.2666 254.067 91.3333C251.667 90.2666 240.467 87.6 229.133 85.3333C212.867 82.1333 205.667 79.8666 196.067 75.3333C159.667 58.1333 135.667 54.9333 81.4 59.8666ZM159 65.3333C172.067 69.0666 187.8 75.0666 198.733 80.6666C207 84.8 222.467 88.6666 242.067 91.4666C250.2 92.5333 251.933 95.0666 244.2 94.5333C240.6 94.2666 238.333 94.6666 237.933 95.7333C237.667 96.5333 238.2 97.3333 239.267 97.3333C240.2 97.3333 245.133 99.7333 250.067 102.533C255 105.467 261 108.133 263.4 108.4C267.267 108.8 267.133 108.933 262.2 109.067C259.267 109.2 256.467 109.733 256.067 110.133C255 111.067 259 121.333 261.4 124.267C262.467 125.6 264.333 126.667 265.533 126.667C267 126.667 267.133 127.067 266.067 128.133C265.267 128.933 260.333 130 255.267 130.4L246.067 130.933L246.6 124.533C248.6 102.267 218.333 93.7333 208.2 113.733C206.067 117.6 205.533 120.667 206.067 124.933L206.733 130.667H147H87.2667L86.7333 122C86.2 112.8 83.5333 108.4 76.0667 104.533C63.6667 98.1333 47.2667 107.733 46.7333 121.733L46.6 126.533L40.4667 125.733C31 124.533 29.6667 122.667 29.6667 110.8C29.8 101.6 30.0667 100.267 33.4 96.6666C36.0667 93.7333 38.4667 92.5333 42.3333 92.2666C47.1333 92 57.9333 86.9333 59.6667 84C60.4667 82.6666 52.2 80 46.3333 80C42.8667 79.8666 43.8 79.0666 52.7333 74.5333C60.2 70.8 63 68.6666 62.4667 67.2C61.9333 65.8666 62.7333 65.3333 65.4 65.2C67.4 65.2 76.8667 64.2666 86.3333 63.3333C111.667 60.6666 146.067 61.6 159 65.3333ZM54.2 83.8666C55 85.0666 47.4 88.6666 41.4 89.8666C37.1333 90.8 36.4667 88.8 39.9333 85.0666C42.2 82.5333 52.8667 81.6 54.2 83.8666ZM255.133 97.4666C262.2 99.8666 267.4 105.333 262.6 105.333C260.733 105.333 245.667 97.6 245.667 96.5333C245.667 95.4666 250.6 96 255.133 97.4666ZM75.9333 108.8C80.0667 111.467 84.3333 118.533 84.3333 122.667C84.3333 130.933 75.2667 140 67 140C61.8 140 54.8667 135.6 52.0667 130.533C43.9333 115.733 61.8 99.4666 75.9333 108.8ZM233 107.2C243.667 111.733 246.333 127.333 237.933 134.8C226.867 144.667 211.267 138.8 210.067 124.4C209.4 116.533 212.867 110.133 219.4 107.333C224.867 104.933 227.4 104.933 233 107.2ZM267.667 117.6C267.533 120.8 267 123.6 266.467 124C265.133 124.8 260.867 119.2 259.667 114.933C258.867 112.267 259.267 112 263.267 112C267.667 112 267.8 112.133 267.667 117.6Z" fill="black"/>
<path d="M103 69.4667C89.4 71.4667 77.9334 73.2 77.4 73.2C70.2 74 96.3334 82.9333 114.333 85.8667C121 86.9333 141 89.0667 159 90.6667C204.867 94.5333 201 94.4 201 91.4667C201 88.1333 176.6 74.4 163.933 70.5333C143.267 64.4 137.133 64.2667 103 69.4667ZM160.6 72.5333C170.333 75.4667 199 89.4667 199 91.4667C199 91.7333 197.667 91.7333 196.067 91.3333C194.333 90.9333 178.6 89.4667 161 88C143.4 86.5333 126.733 84.9333 124.067 84.5333L119 83.7333V76.6667V69.4667L124.067 68.9333C133.8 67.7333 149.133 69.2 160.6 72.5333ZM116.333 77.3333C116.333 80.9333 116.2 84 116.067 84C114.867 84 85.1334 75.8667 84.7334 75.4667C84.2 74.9333 107.133 71.0667 112.733 70.8C116.2 70.6667 116.333 70.9333 116.333 77.3333Z" fill="black"/>
<path d="M218.733 97.3333C209 100.267 201 109.2 199.4 118.933L198.6 124H177.133C165.4 124 141.8 123.6 124.867 123.067L94.0667 122.267L92.6 116.667C86.7333 94.3999 55.2667 90.1333 43.6667 109.867C40.4667 115.467 39.2667 120 41.4 120C41.9333 119.867 43.8 116.8 45.6667 112.933C53.4 96.9333 74.4667 95.0666 86.0667 109.467C88.2 112.267 90.2 116.667 90.6 119.733L91.2667 125.067L127.533 125.867C147.4 126.267 172.2 126.8 182.467 127.067L201.4 127.333L202.2 120.8C202.6 117.2 204.333 112.267 205.933 109.733C209 105.333 220.067 98.6666 224.6 98.6666C225.933 98.6666 227 97.9999 227 97.3333C227 95.7332 223.8 95.7332 218.733 97.3333Z" fill="black"/>
<path d="M61 112.267C56.7333 114.8 55.1333 117.6 55 123.067C55 130.133 59.6667 134.667 67 134.667C74.4667 134.667 79 130.133 79 122.8C79 113.867 68.7333 107.867 61 112.267ZM73.6667 116C79.4 121.733 75.5333 132 67.5333 132C61.8 132 57.6667 128.133 57.6667 122.667C57.6667 120.4 58.8667 117.467 60.3333 116C61.8 114.533 64.7333 113.333 67 113.333C69.2667 113.333 72.2 114.533 73.6667 116Z" fill="black"/>
<path d="M218.333 113.6C216.333 115.467 214.6 118.667 214.067 121.6C213.4 125.867 213.933 127.067 217.4 130.667C225.8 139.067 238.333 134.133 238.333 122.4C238.333 112.133 226.2 106.8 218.333 113.6ZM233.533 116.8C235.133 118.8 236.333 121.333 236.333 122.667C236.333 124 235.133 126.533 233.533 128.533C229.8 133.333 222.867 133.333 219.133 128.533C215.533 123.867 215.667 120.667 219.667 116.667C224.067 112.133 229.933 112.267 233.533 116.8Z" fill="black"/>
</svg>
