<svg width="294" height="188" viewBox="0 0 294 188" fill="none" xmlns="http://www.w3.org/2000/svg">
<path d="M84 60C70.4 61.3334 58.5333 62.5334 57.6 62.5334C56.4 62.6667 56.2667 63.3334 57.2 65.0667C58.2667 67.2 57.4667 68 51.6 70.9334C41.2 76 36.5333 80.5334 34 87.8667C32.8 91.4667 30.6667 95.4667 29.3333 96.6667C27.0667 98.6667 26.6667 100.8 26.6667 110.267C26.6667 116.4 27.2 122.667 28 124C29.6 126.933 36.1333 129.333 42.8 129.333C45.7333 129.333 48 129.867 48 130.533C48 131.2 49.6 133.733 51.6 136.133C55.3333 140.533 54.4 140.4 47.8667 135.6C45.2 133.733 43.4667 133.333 40 134.267C37.4667 134.933 35.3333 136.133 35.0667 136.933C34.5333 138.4 48.2667 141.733 55.6 141.733C58 141.733 59.4667 142.4 59.0667 143.067C58.5333 143.867 59.8667 144.133 62.4 143.6C64.6667 143.2 66.6667 143.2 66.9333 143.867C67.2 144.533 73.3333 144.133 80.6667 143.067C91.2 141.6 107.067 141.333 154.667 141.867C188 142.267 220.4 142.667 226.667 142.933C232.933 143.067 242.8 142.4 248.667 141.467C254.533 140.533 261.733 139.6 264.667 139.467C268.933 139.2 270 138.667 270 136.533C270 134.533 269.2 134.133 266.4 134.4C264.267 134.533 262.667 134.133 262.667 133.333C262.667 132.667 263.867 132 265.333 132C269.067 132 270.667 128 270.667 118.4C270.667 111.867 269.867 108.533 266.933 103.333C261.733 93.8667 256.133 91.2 229.733 85.8667C214.533 82.8 204.8 80 198.8 77.2C174.933 65.6 158.667 60.6667 137.6 58.6667C120.533 57.0667 113.467 57.2 84 60ZM149.733 63.3334C163.333 65.7334 175.867 70 194.667 78.6667C206.267 84.1334 212 85.8667 228 88.8C238.667 90.6667 248 92.6667 248.667 93.0667C249.467 93.6 247.067 94.2667 243.333 94.6667L236.667 95.3334L245.333 99.8667C250.133 102.267 254.933 105.067 256 106C257.067 107.067 260.133 108 262.667 108.4C267.067 108.933 267.067 108.933 261.733 109.067C257.2 109.333 256 109.867 256 111.6C256.133 116.133 261.2 125.333 264.267 126.533C267.333 127.733 267.333 127.733 263.6 129.2C261.467 130 256.533 130.667 252.667 130.667H245.333L246.133 124.933C247.067 117.6 242.533 108.667 236 105.067C230.133 101.867 219.467 102.4 214.267 106.133C208.8 110.133 204.8 119.067 205.867 125.467L206.667 130.667H146.4H86L86.4 123.733C87.0667 111.467 78.8 102.667 66.6667 102.667C55.7333 102.667 46.6667 111.333 46.6667 121.733V126.8L40.4 125.867C30.6667 124.533 29.3333 122.667 29.3333 111.067C29.3333 102.267 29.7333 100.667 33.0667 96.5334C35.8667 92.9334 37.6 92 41.2 92C45.6 92 58.6667 85.8667 58.6667 83.8667C58.6667 82.6667 50.9333 80.2667 45.3333 79.6C42.6667 79.3334 44.1333 78.2667 52.4 74.2667C59.8667 70.6667 62.6667 68.6667 62.1333 67.2C61.7333 66.2667 62.1333 65.3334 63.0667 65.2C64 65.2 72.5333 64.4 82 63.4667C106.667 60.9334 136 60.9334 149.733 63.3334ZM53.8667 83.7334C54.8 85.3334 48.1333 88.9334 42.4 90C36.6667 91.0667 35.7333 89.3334 39.6 85.0667C41.8667 82.5334 52.5333 81.6 53.8667 83.7334ZM254.533 97.3334C259.467 98.6667 265.6 103.733 264.667 105.467C263.733 106.8 258.8 105.333 253.867 102.133C251.6 100.533 248.533 98.6667 247.2 97.7334C244.8 96.2667 244.8 96.1334 247.333 96.1334C248.8 96 252 96.5334 254.533 97.3334ZM74.5333 107.733C81.7333 111.6 85.8667 121.6 83.2 128.667C82.5333 130.4 82 130.533 81.2 129.2C80.4 127.867 79.6 128 77.4667 130C74.4 132.667 74.8 134.667 77.8667 132.133C79.2 131.067 80 130.933 80.6667 132C82.4 134.667 70.8 141.867 68.4 139.467C67.8667 139.067 68.8 138.667 70.4 138.667C73.7333 138.667 75.6 136.267 72.9333 135.2C71.4667 134.667 71.8667 133.6 74.8 130.667C80 125.467 80 119.733 74.8 114.533C72.1333 111.867 69.6 110.667 66.6667 110.667C61.0667 110.667 54.6667 116.933 54.6667 122.4C54.6667 127.067 58 133.867 60.2667 134.133C61.2 134.133 63.6 134.4 65.7333 134.4C67.7333 134.533 69.3333 135.2 69.3333 135.867C69.3333 136.4 67.8667 136.667 66.1333 136.4C64.4 136 62.5333 136.4 62.1333 137.2C61.6 138 62.1333 138.667 63.6 138.8C64.9333 138.8 65.3333 139.2 64.4 139.467C61.7333 140.667 54.6667 136.133 52 131.6C48.6667 126.267 48.6667 120.667 51.7333 114.8C54.4 109.733 61.4667 105.333 66.6667 105.333C68.5333 105.333 72.1333 106.4 74.5333 107.733ZM236 109.067C241.067 112.933 242.8 117.2 242.267 124.533C241.733 130.133 240.933 131.867 236.8 135.6C234.267 138 230.933 140 229.733 139.867C228.267 139.867 228.8 139.333 231.067 138.4C233.867 137.333 234.667 136.4 234.267 134.533C233.867 133.067 234.133 132.4 234.8 132.8C235.467 133.2 236 133.067 235.867 132.4C235.733 131.867 236.267 129.6 237.2 127.333C239.2 122.4 238.133 118 234 113.867C224.933 104.8 209.2 116.267 215.2 127.733L217.333 131.733L213.333 130.267C208.933 128.533 208.133 126.667 209.467 119.6C211.6 107.467 226 101.733 236 109.067ZM268 117.867C268 120.933 267.6 124 267.2 124.4C265.6 125.867 261.6 122.8 260.8 119.467C260.4 117.733 259.6 115.333 259.2 114.267C258.667 112.8 259.467 112 262.267 111.733C267.6 111.067 268 111.467 268 117.867ZM73.4667 116.133C75.3333 118 76 120.133 75.7333 123.733C75.3333 128.533 75.3333 128.667 69.7333 128.267C65.7333 127.867 63.8667 128.4 63.0667 130C62 131.867 61.6 131.867 59.4667 129.467C56.4 126.133 56.2667 121.067 59.2 116.667C62 112.4 69.3333 112 73.4667 116.133ZM232.933 116.267C236.133 119.333 236.933 123.867 234.667 128C233.467 130.133 232 130.533 225.867 130.133C218 129.733 216 128.267 216 122.8C216 114.667 226.8 110.4 232.933 116.267ZM220.267 138C222.667 139.067 223.733 139.867 222.533 140C219.6 140 211.733 134.533 211.067 132C210.667 130.8 211.6 131.2 213.2 133.067C214.667 134.667 217.733 136.933 220.267 138ZM210.667 136.267C212 139.067 212 139.067 210.267 136.933C208.533 134.8 203.867 134.667 146.667 134.667H84.8L81.4667 137.6L78.2667 140.667L80.8 137.067L83.3333 133.467L146.267 133.333H209.2L210.667 136.267ZM258 134.133C251.867 135.067 241.6 135.2 242.267 134.267C242.533 133.733 246.8 133.467 251.733 133.467C256.667 133.6 259.467 133.867 258 134.133Z" fill="#05400F"/>
<path d="M127.333 66.1334C86.4 72 76.8 73.4667 76.2667 74C74.9333 75.3334 95.8667 82.2667 110.667 85.3334C118.133 86.8 187.2 93.3334 196.4 93.3334C204.8 93.3334 202 89.8667 186.667 81.3334C166.667 70.1334 142.667 64 127.333 66.1334ZM156.533 71.3334C165.333 73.4667 174 76.9334 183.333 82C198.667 90.1334 201.467 92.5334 194.4 91.4667C192 91.0667 175.333 89.4667 157.333 88C139.333 86.5334 123.333 84.9334 121.733 84.6667C119.067 84 118.667 83.0667 118.667 76.6667C118.667 69.8667 118.8 69.4667 122.4 68.9334C132.667 67.3334 144.4 68.2667 156.533 71.3334ZM116 77.3334C116 85.0667 117.867 84.8 98 79.7334C84 76.1334 82.1333 75.0667 88 74.1334C99.4667 72.1334 107.6 70.9334 111.733 70.8L116 70.6667V77.3334Z" fill="#05400F"/>
<path d="M217.2 98.1334C207.333 101.067 198.667 112.667 198.667 122.8C198.667 124.8 196 124.933 170.4 124.533C154.8 124.133 131.067 123.6 117.867 123.2L93.7333 122.4L92 116.8C88.2667 103.867 77.4667 96.5334 64.1333 97.7334C55.4667 98.4001 48.5333 102.267 44.2667 108.533C40.8 113.6 39.0667 120 41.2 120C42 120 42.6667 118.933 42.6667 117.6C42.6667 113.733 47.6 106.933 53.3333 103.2C66.8 94.2667 85.8667 102 90 118.267L91.6 124.667L121.467 125.467C137.867 126 162.533 126.4 176.4 126.533L201.333 126.667V122.667C201.333 111.733 210.667 100.933 221.6 99.2001C224.4 98.6667 226.667 97.8667 226.667 97.2001C226.667 95.6001 224.533 95.8667 217.2 98.1334Z" fill="#05400F"/>
</svg>
