<svg width="294" height="160" viewBox="0 0 294 160" fill="none" xmlns="http://www.w3.org/2000/svg">
<path d="M102.667 52.8C97.6 53.8667 86.9333 57.7334 79.0667 61.4667C67.3334 66.8 61.7334 68.5334 46.8 71.2C28.1334 74.4 24.6667 75.8667 24.6667 80.2667C24.6667 81.6 23.3333 85.0667 21.8667 87.7334L18.9333 92.6667L22.1333 100.667C24.9334 107.467 26.1333 109.067 31.2 111.6C34.4 113.2 40.9334 114.933 46 115.467C54.5334 116.267 55.0667 116.533 57.2 120.8C58.2667 123.333 61.2 126.533 63.6 128C73.7334 134.133 84.2667 132.667 91.7334 124L96.2667 118.667H153.733H211.2L217.2 124.533C227.2 134.667 238.667 134.533 248.267 124.533C253.067 119.6 254.8 118.667 259.067 118.667C264.8 118.667 266.4 117.333 271.867 107.867C275.467 101.6 276.4 95.4667 274 94C273.333 93.6 272.667 91.4667 272.667 89.3334C272.667 87.2 271.333 84 269.733 82.1334C267.067 79.0667 264.8 78.5334 250.667 76.6667C241.867 75.6 227.467 74.1334 218.667 73.4667C200.8 72 196.933 70.9333 179.867 62.2667C173.333 58.8 164.4 55.0667 160 53.8667C148.533 50.6667 115.067 50 102.667 52.8ZM150.8 55.3334C160.267 56.9333 166 58.9333 178.667 65.3334C196.267 74 200.933 75.3334 218.667 76.6667C238.267 78.1334 263.467 81.3334 266.133 82.8C270.8 85.2 268.8 86.1334 261.067 85.2C256.8 84.6667 240.267 84.1334 224.267 84.1334L195.2 84L191.467 79.6C186 73.6 167.733 62.9333 158.667 60.5333C152.933 59.0667 145.6 58.5333 130.8 58.9333L110.533 59.3334L103.6 63.8667C99.8667 66.2667 96.6667 68.8 96.6667 69.3334C96.6667 69.8667 101.733 71.7333 108 73.4667C118.133 76.2667 119.333 76.9333 119.333 79.7334C119.333 82.6667 118.933 82.9333 114.4 82C111.6 81.4667 91.2 80.8 69.0667 80.4C46.8 80.1334 28.6667 79.3334 28.6667 78.6667C28.6667 78.1334 33.0667 76.9333 38.4 76C58.9334 72.6667 66.5334 70.5334 79.0667 64.8C92.8 58.5333 99.8667 56.2667 110.667 54.6667C122 52.9333 138.4 53.2 150.8 55.3334ZM122.8 63.4667C122.267 65.4667 121.467 68.6667 121.067 70.8C120.533 73.6 119.733 74.5334 118.133 74.1334C116.933 73.7333 112.533 72.5334 108.4 71.3334C104.133 70.1334 100.667 68.9333 100.667 68.6667C100.667 68.4 102.8 66.9333 105.333 65.3334C110.667 62.1333 115.867 60.2667 120.533 60.1333C123.2 60 123.467 60.4 122.8 63.4667ZM161.333 63.6C165.067 65.0667 171.333 68.1334 175.333 70.4L182.667 74.6667H152.533H122.267L123.6 68.9333C124.267 65.8667 125.2 62.5333 125.467 61.4667C126.4 58.6667 152.533 60.2667 161.333 63.6ZM188.933 79.6C190.267 80.8 191.333 82.2667 191.333 82.9333C191.333 83.4667 175.733 84 156.667 84H122V80.2667V76.6667L154.267 77.0667C181.867 77.3334 186.933 77.7334 188.933 79.6ZM110.8 83.8667L118.933 85.6L121.333 99.0667C122.667 106.533 124 113.467 124.267 114.267C124.8 115.6 121.467 116 110.533 116H96V109.467C96 102 93.2 97.2 86 92.2667C74.2667 84.2667 56.4 93.0667 54.4 108C53.6 114.133 53.4667 114.133 40.8 111.467C30.6667 109.2 26.8 105.867 24.5333 97.0667C23.0667 91.6 23.0667 90.5334 25.0667 88.2667C26.2667 86.9333 27.3334 84.6667 27.3334 83.4667C27.3334 81.2 29.6 81.0667 65.0667 81.7334C86.5334 82 106.133 83.0667 110.8 83.8667ZM194 87.8667C196 91.6 195.6 101.067 193.333 109.067L191.2 116H158.933H126.533L124.267 102.267C122.933 94.8 122 87.8667 122 86.9333C122 85.7334 130 85.3334 157.333 85.3334C190.8 85.3334 192.667 85.4667 194 87.8667ZM263.067 87.4667C266.667 88 268.667 88.9333 268.667 90.1334C268.667 91.2 269.6 93.6 270.8 95.4667C272.933 98.6667 272.8 99.0667 269.333 105.733C264.8 114.133 262.667 116 257.467 116C253.467 116 253.333 115.867 253.333 109.467C253.333 98.4 245.6 90.6667 233.733 89.6C227.867 89.2 225.867 89.6 222.133 92.2667C215.333 96.9334 212.4 101.733 211.6 109.2L210.933 116H202H193.067L195.733 108.267C197.6 102.533 198.133 98.8 197.467 92.8L196.667 84.9333L227.067 85.8667C243.733 86.4 259.867 87.0667 263.067 87.4667ZM82.5334 93.8667C88.9333 96.5334 93.2 103.2 93.2 110.667C93.2 120.933 86 128 75.6 128C61.6 128 53.3334 114.933 59.6 102.8C64.5334 93.3334 73.2 90 82.5334 93.8667ZM243.2 95.8667C245.333 97.4667 248.133 101.333 249.467 104.667C251.6 110.267 251.6 111.067 249.467 116.667C246.667 123.867 240.667 128 232.8 128C224.667 128 219.6 124.8 216.4 117.867C208.933 100.8 228 85.0667 243.2 95.8667Z" fill="#05400F"/>
<path d="M79.4667 100C82.5333 100 86 105.6 86 110.533C86 120 75.7333 124.533 68.1333 118.533C63.4667 114.933 63.3333 107.067 67.7333 103.067C71.2 99.8667 74 98.6667 76.4 99.4667C77.4667 99.7333 78.8 100 79.4667 100Z" fill="#9DEAA9"/>
<path d="M223.2 101.2C212.4 112 225.467 129.2 239.2 122.133C245.6 118.8 247.6 111.067 244 104C239.867 96.1334 229.733 94.8 223.2 101.2ZM240.4 103.067C244.533 106.8 244.4 113.733 240 118C236 122.133 230.267 122.267 225.467 118.533C219.067 113.467 221.6 102.667 230 99.6C232.933 98.5334 236.933 99.8667 240.4 103.067Z" fill="#9DEAA9"/>
<path d="M240.4 103.067C244.533 106.8 244.4 113.733 240 118C236 122.133 230.267 122.267 225.467 118.533C219.067 113.467 221.6 102.667 230 99.6C232.933 98.5334 236.933 99.8667 240.4 103.067Z" fill="#9DEAA9"/>
</svg>
