<svg width="294" height="160" viewBox="0 0 294 160" fill="none" xmlns="http://www.w3.org/2000/svg">
<path d="M90 43.8667C72.9333 44.9333 68.4 46.8 57.6 57.0667C53.0667 61.4667 47.2 66 44.6667 67.3333C36.9333 71.2 32.6667 76.1333 30.4 84C29.3333 88 26.5333 93.8667 24.2667 96.9333C18.9333 104.533 17.7333 114.4 21.8667 118.533C24.2667 120.933 26.2667 121.333 36 121.333C46.2667 121.333 47.3333 121.6 48.8 124.4C49.6 126 51.6 128.8 53.2 130.667C55.0667 132.8 54.2667 132.533 50.9333 129.6C48 127.067 44.8 125.467 43.6 125.867C42.4 126.133 38.1333 126.933 34.4 127.333C27.3333 128.267 24.8 129.733 27.3333 131.333C28.1333 131.867 34.4 132.8 41.4667 133.467C48.4 134 55.3333 135.333 56.9333 136.133C60.1333 137.867 75.7333 137.2 90.6667 134.667C103.867 132.4 212.933 132.267 224.267 134.533C237.333 137.067 254.533 137.333 258.8 135.2C260.667 134.133 263.067 133.333 264.133 133.333C266 133.333 268 130.933 266.933 129.867C266.533 129.467 264.933 129.867 263.333 130.667C260.533 132.133 260.533 132.133 263.6 126.667C265.333 123.6 268.267 119.333 270.267 117.333C273.467 114 274 112.533 274 105.333C274 99.4667 273.067 95.4667 270.8 90.9333C269.067 87.4667 267.333 82.5333 266.8 79.8667C265.067 69.8667 266.8 70.2667 223.2 69.4667C193.733 68.8 183.333 68.1333 181.2 66.8C179.733 65.8667 176.267 61.4667 173.467 57.2C164.8 43.8667 163.333 43.3333 131.333 43.2C116.267 43.0667 97.7333 43.4667 90 43.8667ZM164.4 50.9333C165.467 51.8667 168.667 56 171.467 60.2667C174.4 64.5333 178.4 68.8 180.4 69.8667C183.067 71.2 193.733 71.8667 222 72.6667C248.133 73.2 260.533 74 261.467 75.0667C262.267 76 263.333 78.6667 263.867 81.0667L264.667 85.3333L260.533 83.2C254.4 80.1333 243.867 79.4667 229.6 81.2C210 83.7333 198.8 87.8667 189.467 96.1333C184.133 100.667 179.333 109.867 179.333 115.067V118.667H135.867C94.9333 118.667 92.4 118.533 93.4667 116.267C94 115.067 94.6667 109.733 94.9333 104.667C95.4667 96.5333 95.2 94.8 92.4 90.6667C90.6667 88.1333 87.2 84.9333 84.6667 83.6C77.8667 80 59.4667 81.2 46 86C29.7333 91.7333 31.0667 91.8667 33.3333 85.2C36.4 76.6667 38.9333 73.3333 44.4 71.0667C47.0667 70 52.9333 65.6 57.3333 61.3333C72.1333 47.3333 71.4667 47.4667 115.333 46.6667C153.733 46 158.933 46.4 164.4 50.9333ZM78.6667 84C85.3333 85.4667 92.1333 92.6667 93.4667 99.3333C94.4 104.533 91.4667 118 89.4667 118C88.8 118 88.1333 116 87.8667 113.6C86.2667 99.7333 72.9333 91.6 59.8667 96.6667C53.0667 99.2 48 105.6 46.6667 113.6L45.7333 118.667H36.6667C23.8667 118.667 23.3333 118.267 23.3333 110.4C23.3333 97.7333 33.6 90.1333 58.6667 84.6667C68.4 82.5333 71.7333 82.4 78.6667 84ZM258.133 84.8C265.6 87.8667 271.333 95.8667 271.333 103.467C271.333 113.333 267.6 119.6 266.4 111.733C265.467 106.133 261.2 100.667 255.333 97.6C248 94 244.4 93.8667 237.2 97.3333C230.533 100.667 227.067 105.333 226 112.667L225.333 118L204.667 118.4C193.333 118.533 183.333 118.4 182.4 118.133C181.067 117.6 181.2 116.133 182.667 111.2C187.733 94.4 210.933 83.0667 240.933 82.8C248.933 82.6667 254.4 83.3333 258.133 84.8ZM79.4667 103.867C84 108.267 84.6667 109.867 84.6667 115.067C84.6667 120.267 84.2667 121.067 81.4667 121.6C78.5333 122.133 78.4 121.867 78.9333 117.333C79.4667 113.467 78.9333 111.733 76 108.267C68.8 99.7333 55.3333 104.933 55.3333 116.133C55.3333 120.133 57.6 123.733 61.7333 126C63.7333 127.2 64.1333 127.733 62.6667 127.2C61.2 126.8 58.5333 126 56.6667 125.733L53.3333 125.2L57.0667 128.533C59.0667 130.4 60.2667 132 59.4667 132C57.6 132 51.4667 124.267 50.5333 120.533C48.9333 114.267 50.9333 107.6 56 102.933C60 99.3333 61.6 98.6667 67.4667 98.6667C73.6 98.6667 74.8 99.2 79.4667 103.867ZM258.133 103.867C262.533 108.133 263.333 109.867 263.333 114.533C263.333 123.867 258.267 131.067 250.667 132.533C247.467 133.2 247.2 133.067 249.333 132.133C252.267 130.8 251.067 130.267 246.267 130.667C244.533 130.8 241.867 129.6 240.533 128.133C239.067 126.533 236.533 125.333 234.933 125.333C232.133 125.467 232.267 125.6 236 128.667C238.267 130.533 239.333 132 238.533 132C235.067 132 228.667 122.267 228.667 116.667C228.667 106.533 236.667 98.6667 247.2 98.6667C252.133 98.6667 253.733 99.4667 258.133 103.867ZM74.4 109.067C76.9333 111.333 77.6 120.667 75.2 122.133C72.4 123.867 60.4 123.067 59.2 121.2C57.2 118 57.8667 111.2 60.4 109.067C64.9333 104.933 69.7333 104.933 74.4 109.067ZM98.6667 122.667C99.2 123.467 101.467 123.733 104.4 123.067C107.067 122.667 135.467 122 167.333 121.733L225.467 121.333L229.867 127.6L234.267 134L229.333 128.933L224.533 124H208.267C199.333 124 180.667 123.733 166.667 123.333C144.267 122.8 142 122.933 146.667 124.533C152 126.267 151.867 126.267 138 127.067C130.267 127.6 115.733 128.133 105.733 128.4C88.1333 128.8 87.6 128.8 88.8 126.267C90.5333 123.333 89.0667 121.2 87.3333 124C86.5333 125.067 86 125.333 86 124.533C86 123.733 86.4 122.667 86.9333 122.267C88.2667 120.8 97.7333 121.2 98.6667 122.667ZM81.8667 125.6C79.6 129.733 72.5333 133.333 66.6667 133.2H61.3333L66.2667 131.067C69.2 130 70.9333 128.4 70.4 127.6C69.8667 126.8 70.4 126.533 71.6 126.933C72.6667 127.333 74.1333 126.8 74.9333 125.6C75.6 124.267 77.8667 123.2 79.7333 123.2C82.8 122.933 83.0667 123.333 81.8667 125.6Z" fill="#05400F"/>
<path d="M90 50.9334C87.2 52.4001 86.6667 53.8667 86.2667 59.6001C85.7333 69.2001 88.1333 70.6667 104 70.6667C119.067 70.6667 122 69.0667 122 60.8001C122 51.3334 120.133 50.0001 105.733 49.6001C97.4667 49.3334 92.2667 49.8667 90 50.9334ZM117.733 53.6001C118.667 54.5334 119.333 57.3334 119.333 60.0001C119.333 62.6667 118.667 65.4667 117.733 66.4001C116 68.1334 94.6667 68.6667 90.8 67.2001C88.2667 66.2667 87.8667 56.0001 90.2667 53.6001C91.3333 52.5334 96.4 52.0001 104 52.0001C111.6 52.0001 116.667 52.5334 117.733 53.6001Z" fill="#05400F"/>
<path d="M130.267 51.4667C127.867 53.0667 127.333 54.8001 127.333 60.5334C127.333 66.8001 127.733 67.7334 130.667 69.0667C132.533 70.0001 140.133 70.6667 147.333 70.6667C158.933 70.6667 161.067 70.2667 163.333 68.0001C164.8 66.5334 166 64.5334 166 63.4667C166 59.8667 159.867 52.6667 155.333 51.0667C148.4 48.6667 133.867 48.9334 130.267 51.4667ZM156.533 54.0001C161.333 56.4001 164.4 63.0667 162 66.0001C160.667 67.6001 157.067 68.0001 146.133 68.0001C130.133 68.0001 128.667 67.3334 128.667 60.0001C128.667 57.3334 129.333 54.5334 130.267 53.6001C132.533 51.3334 151.867 51.4667 156.533 54.0001Z" fill="#05400F"/>
<path d="M56.6667 74.8C56.6667 76.4 245.2 78.5333 246.8 76.9333C247.467 76.2667 164.933 74.8 96.9334 74.2667C74.8 74.1333 56.6667 74.4 56.6667 74.8Z" fill="#05400F"/>
<path d="M127.333 95.3333C127.333 102.267 127.733 108 128.4 108C128.933 108 129.467 102.267 129.467 95.3333C129.6 88.4 129.2 82.6667 128.533 82.6667C127.867 82.6667 127.333 88.4 127.333 95.3333Z" fill="#05400F"/>
<path d="M98 112C98 112.8 111.333 113.333 135.333 113.333C159.333 113.333 172.667 112.8 172.667 112C172.667 111.2 159.333 110.667 135.333 110.667C111.333 110.667 98 111.2 98 112Z" fill="#05400F"/>
<path d="M237.333 107.467C231.6 113.6 233.333 122.133 240.8 126.133C252.667 132.267 263.867 117.333 254.667 107.467C250.133 102.533 241.867 102.533 237.333 107.467ZM253.2 109.333C256.8 112.8 256.533 119.733 252.8 122.933C246.4 128 236.667 124.133 236.667 116.533C236.667 106.667 246.133 102.533 253.2 109.333Z" fill="#05400F"/>
<path d="M118.4 123.6C122.533 123.867 129.467 123.867 133.733 123.6C137.867 123.333 134.4 123.2 126 123.2C117.6 123.2 114.133 123.333 118.4 123.6Z" fill="#05400F"/>
</svg>
