<svg width="294" height="160" viewBox="0 0 294 160" fill="none" xmlns="http://www.w3.org/2000/svg">
<path d="M75.6667 22.1334C74.2 22.4 69 22.9334 64.0667 23.3334C56.2 24.1334 55 24.5334 55 26.8C55 29.8667 43.6667 47.0667 37.9333 52.9334C32.0667 58.8 28.2 72.2667 27.4 89.7334C26.6 106 27.8 109.333 35.2667 112C38.3333 113.2 40.4667 115.2 42.0667 118.8C48.7333 132.8 71.8 134.933 82.2 122.533L85.5333 118.667H144.067H202.733L204.867 122C210.333 130.267 227.133 133.467 236.333 127.867C238.867 126.267 242.2 123.733 243.667 122C245.667 119.733 248.867 118.533 256.333 117.467C270.733 115.2 271.4 114.267 270.733 98C270.067 83.2 267.8 77.0667 260.2 69.4667C253.533 62.8 246.733 60.1334 231.267 58C223.4 56.8 215.533 55.4667 213.667 54.8C211.667 54.1334 203.4 48.8 195.267 42.8C167.133 22.5334 162.333 21.2 112.733 21.4667C93.8 21.6 77.1333 21.8667 75.6667 22.1334ZM156.333 26.2667C158.733 27.3334 148.867 27.7334 118.867 28.2667C82.4667 28.8 77.5333 29.0667 74.3333 31.2C71.4 33.2 70.8667 34.2667 71.5333 37.4667C73.5333 48 81.5333 52.8 98.6 54.1334L110.6 55.0667L111.4 71.8667C112.2 88.8 115 103.067 118.333 106.533C119.667 107.867 128.333 108.667 154.6 109.467L189 110.667L191.8 107.467C195.8 102.933 198.333 85.7334 197.267 70.5334L196.333 58.6667H204.733C218.2 58.6667 243 62.4 249.133 65.3334C252.2 66.8 255.8 69.3334 257.133 70.8C259.133 73.0667 258.733 73.0667 253.533 70.1334C245.8 65.8667 237 63.6 232.2 64.6667C226.2 66 227.533 68.9334 236.067 73.2C240.2 75.3334 244.733 78.2667 246.2 79.8667C248.733 82.6667 253.533 84.5334 261.8 85.8667C267.267 86.8 268.333 89.3334 268.333 101.6C268.333 111.2 267 112.8 258.2 114C253.933 114.533 249.8 115.2 248.867 115.6C247.667 116 247.533 115.067 248.333 111.467C250.467 101.867 244.867 89.0667 236.6 84.8C226.467 79.6 214.733 81.2 206.867 89.2C200.733 95.2 198.067 103.733 199.933 110.933L201.267 116H144.2H87L87.9333 110C90.0667 94.1334 75.4 79.4667 59.8 81.8667C48.3333 83.7334 39 94 39 104.667C39 111.067 34.6 110.933 31.1333 104.4C29.5333 101.333 29.1333 87.7334 30.4667 79.6C31.2667 74.9334 31.6667 74.6667 36.2 74.6667C40.2 74.6667 42.0667 73.6 46.2 69.4667C48.8667 66.6667 53.5333 63.6 56.4667 62.8C62.6 60.9334 63 59.6 58.0667 56.4C53.9333 53.7334 43.9333 53.4667 40.8667 56.1334C39.8 56.9334 38.6 57.3334 38.0667 56.9334C37.6667 56.4 38.7333 55.6 40.4667 54.9334C42.2 54.1334 45.2667 52.9334 47.2667 52.1334C51.2667 50.6667 60.3333 37.7334 60.3333 33.6C60.3333 32.2667 59.6667 30.5334 58.7333 29.6C57.9333 28.8 57.4 27.7334 57.8 27.4667C60.8667 24.4 149.267 23.3334 156.333 26.2667ZM110.2 37.4667C111.8 53.7334 112.333 52.9334 102.067 52.2667C88.6 51.6 83 49.7334 78.0667 44.4C73.5333 39.7334 72.2 33.7334 75.4 32.6667C76.7333 32.1334 96.6 30.1334 106.467 29.4667C109 29.3334 109.4 30.2667 110.2 37.4667ZM175 33.0667C178.333 35.0667 187 40.8 194.067 46L207.133 55.3334L182.067 55.7334C159.667 56.1334 115.267 54 113.8 52.5334C113.4 52.2667 112.867 46.9334 112.6 40.6667L111.933 29.3334H140.467H169L175 33.0667ZM56.2 38.4C50.7333 47.4667 48.2 50.6667 46.3333 50.6667C45.4 50.6667 47.1333 46.9334 50.7333 41.4667C57 32 61.5333 29.4667 56.2 38.4ZM163.667 58.1334C179.8 58.5334 193.267 59.3334 193.667 59.6C194.067 60 194.333 68.6667 194.333 79.0667C194.2 93.8667 193.667 99.0667 191.933 103.2L189.667 108.267L156.067 107.333C127.267 106.533 122.067 106.133 120.2 104.267C116.6 100.533 113.667 85.3334 113.667 69.7334V55.3334L123.933 56.2667C129.667 56.8 147.533 57.6 163.667 58.1334ZM55.6667 57.7334C57.9333 59.4667 57.8 59.7334 53.6667 61.0667C51.2667 62 47.2667 64.8 44.8667 67.4667C41.2667 71.2 39.5333 72.1334 36.3333 71.7334L32.3333 71.3334L35 66C39.2667 57.2 49.4 53.2 55.6667 57.7334ZM249 70.5334C256.067 73.8667 265.4 82 263.933 83.6C262.467 85.0667 251.8 81.2 247.933 77.7334C245.4 75.4667 240.6 72.6667 237.267 71.2C233.8 69.8667 231 68.2667 231 67.6C231 65.3334 241.667 66.9334 249 70.5334ZM74.4667 88.1334C81.6667 92.5334 84.7333 98.8 84.0667 107.867C83.4 117.067 80.4667 121.6 72.6 125.467C57.5333 132.933 40.2 120.933 42.0667 104.267C43.8 89.0667 61.5333 80.1334 74.4667 88.1334ZM235.133 88.4C242.867 93.6 245.933 99.6 245.4 107.733C244.333 120.133 236.6 127.333 224.333 127.333C215.533 127.333 211.133 124.933 205.933 117.2C201.933 111.333 202.2 100 206.733 93.7334C212.733 85.2 226.6 82.6667 235.133 88.4Z" fill="#05400F"/>
<path d="M54.6 96C47.6667 101.467 48.7334 114.133 56.4667 118C66.3334 123.2 76.3334 117.2 76.3334 106.267C76.3334 101.6 75.5334 99.6 72.8667 96.8C68.3334 92.4 59.8 92 54.6 96ZM71.1334 98.1334C78.4667 104.8 73.5333 117.2 63.5334 117.333C51.6667 117.467 47.9333 102.4 58.3334 96.2667C61.5333 94.2667 67.9334 95.2 71.1334 98.1334Z" fill="#9DEAA9"/>
<path d="M71.1334 98.1334C78.4667 104.8 73.5333 117.2 63.5334 117.333C51.6667 117.467 47.9333 102.4 58.3334 96.2667C61.5333 94.2667 67.9334 95.2 71.1334 98.1334Z" fill="#9DEAA9"/>
<path d="M214.867 97.2C204.2 107.867 216.6 125.333 230.067 118.533C242.867 112 238.6 93.3333 224.333 93.3333C219.933 93.3333 217.933 94.1333 214.867 97.2ZM229.667 96.6667C239.533 101.733 235.533 117.333 224.467 117.333C218.733 117.2 215.667 115.067 213.667 110C211.8 105.067 214.067 99.3333 218.867 96.6667C223.4 94.2667 225 94.2667 229.667 96.6667Z" fill="#9DEAA9"/>
<path d="M229.667 96.6667C239.533 101.733 235.533 117.333 224.467 117.333C218.733 117.2 215.667 115.067 213.667 110C211.8 105.067 214.067 99.3333 218.867 96.6667C223.4 94.2667 225 94.2667 229.667 96.6667Z" fill="#9DEAA9"/>
</svg>
