<svg width="294" height="160" viewBox="0 0 294 160" fill="none" xmlns="http://www.w3.org/2000/svg">
<path d="M94 55.6C92.5333 56 85.2 59.2 77.6 62.6666C64.4 68.9333 63.3333 69.2 45.7333 70.6666C26.5333 72.2666 22.9333 73.6 20.2667 79.4666C14.6667 91.6 23.6 102.4 42.6667 106.667C54.5333 109.2 54.6667 109.333 54.6667 112.8C54.6667 117.067 57.4667 122.533 61.8667 126.533C66.6667 131.067 79.0667 132.533 90.4 129.867C102.4 127.067 189.333 126.933 204.667 129.733C218.4 132.133 228.4 131.733 243.333 128C257.2 124.533 260.533 122.4 256 120C252.4 118 242.667 119.067 240.667 121.6C240 122.533 238.133 124.267 236.8 125.333C234.533 127.067 234.667 126.533 237.333 121.867C240.133 117.067 241.467 116.133 247.6 114.667C262.533 111.067 269.467 104.533 270.4 92.9333L270.933 85.6L263.467 82.8C251.333 78.2666 246.133 77.4666 216.267 75.3333C184.933 73.2 184.667 73.2 166.8 61.7333L156.933 55.3333L126.8 55.0666C110.267 55.0666 95.4667 55.2 94 55.6ZM158 60C160.933 61.4666 167.467 65.3333 172.4 68.5333C180.933 74 181.2 74.4 177.733 75.0666C174.933 75.6 172.8 74.6666 168.133 70.6666C156.933 61.3333 151.733 59.4666 135.733 59.0667C119.6 58.6666 112.667 60.2666 102.8 66.5333C96.5333 70.6666 95.8667 70.8 83.2 70.4L70 70L79.3333 65.4666C95.2 57.8666 97.2 57.4666 126 57.4666C149.867 57.3333 153.2 57.6 158 60ZM116.933 67.7333C116 71.2 114.667 73.3333 113.333 73.3333C108.8 73.3333 101.333 71.6 101.333 70.5333C101.333 69.6 117.467 60.9333 118.133 61.7333C118.267 61.8666 117.733 64.5333 116.933 67.7333ZM152 63.3333C158 65.4666 169.2 73.0666 169.333 75.0666C169.333 76.2666 119.333 75.7333 118.133 74.5333C117.733 74.1333 118 71.7333 118.8 69.2C119.6 66.6666 120.4 63.8666 120.8 62.9333C121.467 60.5333 144.8 60.8 152 63.3333ZM99.6 73.4666C105.333 74.2666 110.4 75.3333 110.8 75.8666C111.2 76.2666 111.067 78.6666 110.4 81.2C109.333 85.2 108.8 85.4666 105.6 84.6666C103.6 84.1333 84.1333 83.3333 62.4 83.0666C40.5333 82.8 22.6667 82 22.6667 81.4666C22.6667 80.9333 23.8667 79.3333 25.4667 77.8666C30.5333 73.3333 78.6667 70.5333 99.6 73.4666ZM224 79.3333C240.933 80.5333 251.467 82 257.6 83.8666C274 89.0666 271.067 89.8666 237.867 88.9333C221.067 88.4 185.867 87.6 159.733 87.2C108.133 86.1333 110.8 86.6666 112.8 79.3333C113.467 76.6666 114.4 76.6666 156.4 77.0666C180 77.2 210.4 78.2666 224 79.3333ZM102.667 86.8L109.333 88.2666V93.7333C109.333 96.8 110 101.6 110.8 104.267L112.133 109.333H148C171.067 109.333 184 108.8 184 108C184 107.2 171.333 106.667 148.8 106.667H113.6L112.8 102.933C110.933 92.6666 110.667 89.4666 111.733 88.8C112.8 88.1333 184.667 89.4666 239.333 91.2C248.933 91.6 259.2 91.8666 262.133 91.8666L267.733 92L266.667 96.6666C266.133 99.3333 264.933 102.267 264.133 103.2C262.4 105.2 249.2 111.2 243.867 112.533C240.533 113.2 240.267 112.933 239.6 107.6C239.067 103.467 237.6 100.933 234.133 97.7333C228 92 221.467 90.9333 213.467 94.1333C206.667 97.0667 201.333 104.4 201.333 111.067C201.333 113.2 200.8 114.533 200.267 114.133C199.733 113.867 177.733 113.333 151.333 113.2C97.0667 112.933 96 112.8 91.3333 103.467C87.4667 95.7333 82.5333 92.6666 74.1333 92.6666C68.5333 92.6666 66.1333 93.4666 62.2667 96.4C59.6 98.4 57.0667 101.467 56.5333 103.2C55.7333 106.4 55.7333 106.4 47.6 104.533C36.4 102 26.6667 98.2667 29.7333 97.6C32.8 96.9333 32.6667 96.2666 28.6667 90.2666L25.2 85.3333H60.5333C80.8 85.3333 98.6667 86 102.667 86.8ZM25.8667 90C28.4 94 28.5333 94.6666 26.2667 94.6666C24.8 94.6666 21.3333 89.4666 21.3333 87.3333C21.3333 85.4666 24 87.0666 25.8667 90ZM82.8 98.2667C87.2 100.8 90.6667 107.333 90.6667 112.8C90.6667 119.333 82.8 128.133 76.9333 128C76 127.867 77.4667 126.933 80 125.733C82.5333 124.667 83.8667 123.467 82.9333 123.067C82 122.667 79.2 123.733 76.5333 125.2C70.8 128.667 66.5333 127.867 62 122.533C55.4667 114.667 56.6667 105.2 64.8 98.8C69.2 95.3333 77.4667 95.0667 82.8 98.2667ZM229.067 97.8666C236.8 102.133 239.6 113.067 234.8 120.8C232.4 124.8 232 124.933 225.067 124.4C220.533 124 216.267 122.533 212.933 120.267C210.267 118.4 207.6 117.2 207.333 117.6C205.867 119.067 212.4 125.333 216.4 126.533C219.467 127.467 219.867 127.733 217.867 127.867C216.267 128 213.333 126.667 211.333 125.067C199.333 115.733 205.467 95.8666 220.4 96C223.467 96.1333 227.333 96.8 229.067 97.8666ZM96.8 117.333C98.8 117.333 99.3333 115.333 97.7333 114.267C97.0667 114 97.6 114 98.6667 114.4C106.933 116.8 115.333 117.333 156.133 117.333H202.133L205.733 122.933L209.333 128.667L205.333 124.267C201.6 120.267 197.467 118.267 199.333 121.467C200 122.4 184.133 122.8 147.467 122.533C110.533 122.4 94.6667 121.867 94.6667 120.933C94.6667 120.133 92.1333 121.867 89.0667 124.667L83.4667 130L87.7333 124.533C90 121.6 92.2667 117.467 92.9333 115.2C93.8667 111.733 94 111.6 94.4 114.267C94.6667 116 95.7333 117.333 96.8 117.333Z" fill="#05400F"/>
<path d="M66.8 103.6C65.3333 104.933 63.6 107.867 63.2 110.267C62.5333 113.867 63.0667 115.2 66.4 118.667C70.9333 123.2 75.2 123.733 80 120.4C81.7333 119.067 84.5333 118.133 86 118C89.2 118 90.8 112 87.4667 112C86.4 112 85.0667 110.667 84.5333 108.933C82.9333 103.733 79.8667 101.333 74.6667 101.333C71.8667 101.333 68.4 102.4 66.8 103.6ZM79.7333 105.333C84.4 109.733 83.4667 111.6 76 112.667C71.7333 113.2 69.3333 114.133 69.7333 115.2C70.5333 117.467 79.0667 117.333 81.0667 114.933C81.8667 113.733 82.6667 113.467 82.6667 114.267C82.6667 116.4 79.2 119.6 75.8667 120.667C71.7333 122 66.1333 117.333 65.6 112.4C65.3333 109.333 66 107.6 68.8 105.467C73.3333 102 76 101.867 79.7333 105.333Z" fill="#05400F"/>
<path d="M213.333 104C208.933 108.4 209.333 115.333 214.133 119.6C219.467 124.4 227.6 122.8 230.533 116.4C232.667 111.733 232.4 108.8 229.2 104.8C225.733 100.4 217.467 99.8666 213.333 104ZM226.667 105.333C229.867 108.533 230.133 114.933 227.2 117.867C224.667 120.4 223.067 120.667 225.2 118.267C226 117.2 226.267 116 225.733 115.6C224.533 114.267 218.267 114.533 216 116C214.4 116.933 215.067 117.6 218.667 119.2C221.333 120.4 222.267 121.2 220.933 121.333C217.733 121.333 212 115.467 212 112C212 108.4 217.733 102.667 221.333 102.667C222.8 102.667 225.2 103.867 226.667 105.333Z" fill="#05400F"/>
<path d="M42 120C41.0667 121.6 43.3333 122.667 48.6667 123.067C51.4667 123.2 52.8 122.667 53.0667 120.933C53.4667 119.067 52.5333 118.667 48.1333 118.667C45.2 118.667 42.4 119.333 42 120Z" fill="#05400F"/>
</svg>
