<svg width="294" height="160" viewBox="0 0 294 160" fill="none" xmlns="http://www.w3.org/2000/svg">
<path d="M93.3333 34.2667C78.4 35.0667 59.0667 37.6 51.8667 39.4667C38.1333 43.3333 23.7333 57.6 22 69.0667C21.6 71.7333 20.4 75.7333 19.3333 77.7333C16.9333 82.2667 16.6667 97.0667 18.8 101.867C20.5333 105.467 26.1333 108.667 33.3333 110C36.6667 110.533 38.6667 112 40.2667 114.667C46.9333 126.267 64.2667 127.2 73.4667 116.4L76.6667 112.667L142 113.733L207.2 114.667L210.667 117.867C215.6 122.533 219.2 124 225.333 124C231.333 124 234.933 122.533 239.733 118.133C242.533 115.733 244.533 115.333 255.6 115.333C267.733 115.333 268.267 115.2 271.467 111.6C274 108.667 274.667 106.4 274.533 100.933C274.267 81.7333 263.2 72.8 231.733 66.8C224.133 65.2 214.8 63.3333 210.933 62.5333C206.933 61.7333 196.133 57.3333 186.933 52.6667C169.067 43.8667 162.4 41.4667 147.6 38C138.133 35.8667 111.733 33.2 104.667 33.6C102.533 33.7333 97.3333 34 93.3333 34.2667ZM137.467 39.4667C155.333 42.5333 169.067 47.2 186.8 56.1333C196.4 60.9333 205.867 64.6667 211.467 65.8667C216.533 66.9333 225.6 68.8 231.6 69.8667C237.467 71.0667 245.6 73.2 249.6 74.6667L256.667 77.2H251.733C248.933 77.3333 246.667 77.8667 246.667 78.4C246.667 79.8667 254.667 87.3333 258.267 89.2C259.867 90 263.333 90.6667 265.867 90.6667H270.667V99.2C270.667 110.933 269.467 112 255.333 112H244.267L245.6 107.6C248.267 99.0667 242.133 87.0667 233.6 83.8667C227.467 81.4667 218.267 82.5333 213.067 86C207.067 90 203.333 98.9333 204.4 106.267L205.2 111.333L174.933 111.067C158.267 110.8 129.6 110.267 111.333 109.867L77.8667 109.067L78.4 104.667C79.2 98.4 74.4 88.6667 69.0667 85.3333C63.7333 82.1333 53.6 81.7333 47.6 84.6667C41.4667 87.6 36.9333 94.9333 36.8 102C36.6667 108.533 36.6667 108.533 27.0667 104.667C21.7333 102.4 20 99.0667 20 90.8C20 82 23.4667 74.6667 27.4667 74.6667C30.6667 74.6667 38.6667 67.2 38.6667 64.1333C38.6667 62.9333 37.2 62.5333 33.3333 62.9333C30.4 63.2 28 63.0667 28 62.6667C28 58.4 43.2 45.3333 51.2 42.6667C66.1333 37.7333 116.4 35.8667 137.467 39.4667ZM34.6667 66.2667C34.6667 68.4 30 72 27.3333 72C24.9333 72 24.5333 71.4667 25.0667 68.6667C25.6 65.8667 26.4 65.3333 30.1333 65.3333C32.6667 65.3333 34.6667 65.7333 34.6667 66.2667ZM264.933 82.9333C268.933 86.6667 268.8 88 264.4 88C261.467 88 250.667 82.1333 250.667 80.5333C250.667 80.2667 253.2 80 256.267 80C260.133 80 262.8 80.9333 264.933 82.9333ZM69.3333 90C79.4667 99.6 76.4 115.067 63.6 119.867C58.4 121.867 55.2 121.733 49.7333 119.067C37.4667 113.333 36.6667 95.2 48.4 87.8667C54.5333 84 64.1333 84.9333 69.3333 90ZM234.267 88C246.4 95.3333 245.6 112.667 232.8 118.933C225.2 122.667 218.933 121.467 212.667 115.2C208.533 111.067 208 109.733 208 103.6C208 95.7333 210.133 91.7333 216.533 87.8667C221.867 84.6667 228.8 84.6667 234.267 88Z" fill="#05400F"/>
<path d="M78 44.2667C67.7333 45.7333 59.0667 47.2 58.6667 47.6C58.2667 48 60.2667 50.2667 63.0667 52.6667C67.4667 56.5333 68 57.4667 66.8 59.8667C66 61.3333 65.3333 63.7333 65.3333 65.3333C65.3333 69.4667 84.4 97.8667 90.1333 102.133C94.6667 105.733 95.6 105.867 118.4 106.8C157.733 108.533 189.067 108.933 190.8 108C192.8 106.667 197.6 76.5333 196.533 71.7333C196 68.8 193.333 66.9333 182.267 61.0667C149.2 43.7333 145.067 42.5333 117.333 42C101.6 41.6 92.1333 42.1333 78 44.2667ZM122.533 56.8L122.667 63.6L113.067 63.0667C93.8667 61.8667 81.8667 60.2667 76.9333 58.2667L71.8667 56L75.3333 51.4667C79.4667 46 82.5333 45.3333 104.667 44.1333L120.667 43.3333L121.467 46.6667C122 48.5333 122.4 53.0667 122.533 56.8ZM150.133 48.6667C158.533 51.4667 188.667 66.4 187.733 67.3333C187.2 67.8667 126.133 63.8667 125.6 63.3333C125.333 63.0667 124.8 58.4 124.4 52.9333L123.6 43.0667L132.133 44.2667C136.8 44.9333 144.933 46.9333 150.133 48.6667ZM74.6667 47.6C74.6667 48.2667 73.4667 50.1333 72.1333 51.8667C69.7333 55.0667 69.7333 55.0667 66.2667 52.5333C61.4667 49.0667 61.7333 48.2667 67.7333 47.6C70.4 47.3333 73.0667 47.0667 73.7333 46.9333C74.2667 46.8 74.6667 47.0667 74.6667 47.6ZM81.4667 62C84.8 62.9333 95.4667 64.1333 105.067 64.6667L122.533 65.6L123.2 75.2C123.6 80.4 124.133 89.3333 124.4 94.9333L124.667 105.333L111.333 104.533C92.4 103.333 91.0667 102.4 78.6667 84C67.3333 67.0667 66.9333 66.2667 68.5333 61.6C69.3333 59.0667 70.2667 58.6667 72.4 59.3333C74 59.8667 78.1333 61.0667 81.4667 62ZM194.267 71.0667C195.467 72.2667 190.933 104.133 189.333 105.733C188.8 106.4 174.533 106.533 157.6 106L127.067 104.933L126.133 90.1333C125.733 82 125.333 73.2 125.333 70.6667V66L159.333 68.1333C178 69.2 193.733 70.5333 194.267 71.0667Z" fill="#05400F"/>
<path d="M54 88.9334C52.5333 89.3334 49.7333 91.2 47.7333 93.0667C38.1333 102 44.5333 117.333 57.7333 117.333C64.5333 117.333 72 110.4 72 104.133C72 94 63.4667 86.8 54 88.9334ZM65.2 94.1334C75.3333 102.667 66.4 118.8 53.7333 114.533C46.2667 112.133 43.0667 102.533 47.4667 96.2667C51.8667 90 59.3333 89.0667 65.2 94.1334Z" fill="#9DEAA9"/>
<path d="M65.2 94.1334C75.3333 102.667 66.4 118.8 53.7333 114.533C46.2667 112.133 43.0667 102.533 47.4667 96.2667C51.8667 90 59.3333 89.0667 65.2 94.1334Z" fill="#9DEAA9"/>
<path d="M230.301 113.557L230.301 113.557L230.31 113.553C234.179 111.618 236.399 108.482 236.906 105.093C237.413 101.701 236.215 97.9888 233.113 94.8869C230.513 92.2865 228.1 91.1667 225.333 91.1667C222.571 91.1667 219.693 92.649 217.491 94.8997C215.29 97.1494 213.833 100.097 213.833 102.933C213.833 111.794 222.799 117.499 230.301 113.557Z" fill="#9DEAA9" stroke="#9DEAA9"/>
</svg>
