<svg width="294" height="160" viewBox="0 0 294 160" fill="none" xmlns="http://www.w3.org/2000/svg">
<path d="M120.667 24.9333C109.2 26 88.6667 29.8667 80.6667 32.2667C62 38 52.1334 45.4667 37.7334 64.6667C29.7334 75.2 16.6667 99.6 16.6667 104C16.6667 108.4 20 109.6 31.8667 109.067L43.2 108.667L45.3334 114.4C48.5334 122.533 54.9334 127.067 64.8 127.733C75.6 128.533 83.2 124.133 87.6 114.667L90.6667 108H148C179.467 108 207.6 107.6 210.4 107.2C214.933 106.4 215.333 106.533 215.333 109.6C215.333 113.6 220 120.8 224.933 124.4C229.467 127.733 241.733 128.933 247.333 126.667C255.867 123.067 263.2 110.133 261.2 102C260.533 99.2 260.8 98.6667 263.2 98.6667C264.8 98.6667 267.2 97.4667 268.8 95.8667C271.067 93.6 271.333 92.1333 270.667 87.6C268.133 73.2 259.733 62.2667 245.6 55.3333C233.333 49.3333 224 47.0667 207.733 46L194.667 45.0667L186.667 37.2C174.267 25.2 170.667 24 146 24.2667C134.667 24.4 123.2 24.6667 120.667 24.9333ZM174.267 30.9333C177.6 33.0667 183.2 37.7333 186.533 41.6L192.533 48.5333L206.933 49.4667C226.933 50.6667 241.467 54.8 250.667 61.8667C253.067 63.7333 252.8 63.7333 248 62.1333C239.6 59.2 216.667 58.4 192.667 59.8667C180.533 60.6667 155.733 61.3333 137.333 61.4667C100.667 61.7333 70.9334 63.2 58.6667 65.4667C39.8667 68.8 27.0667 81.4667 25.0667 98.8C24.4 104.133 23.8667 105.333 21.7334 105.333C18.5334 105.333 19.0667 103.067 25.4667 90.5333C35.3334 70.9333 51.7334 50.4 63.2 43.4667C80.9334 32.6667 113.467 26.6667 150.667 27.0667C166.933 27.3333 168.4 27.6 174.267 30.9333ZM222.667 63.2C212.933 67.4667 206.133 79.4667 204 96.2667L203.067 103.6L176.267 104.4C161.467 104.933 138.8 105.333 125.867 105.333H102.267L101.333 98.9333C99.4667 86 90.9334 74.1333 79.4667 68.8L73.3334 66L84.6667 65.2C90.9334 64.6667 111.6 64.1333 130.667 64C149.733 63.7333 172.267 63.2 180.667 62.6667C189.067 62.2667 202.933 61.7333 211.333 61.6C225.067 61.4667 226.267 61.6 222.667 63.2ZM247.867 64.2667C254.933 66.4 264 75.4667 265.867 82.1333C267.733 88.6667 267.733 94.6667 266 94.6667C265.333 94.6667 264.667 94.1333 264.667 93.4667C264.667 92.9333 262.267 89.6 259.2 86.1333C243.733 68.6667 214.8 76.2667 210.133 99.2C209.6 101.333 208.4 103.467 207.467 103.733C205.867 104.267 205.733 102.667 206.4 95.6C207.867 80.4 215.333 68.4 226 64.1333C230.667 62.2667 241.333 62.4 247.867 64.2667ZM79.0667 71.4667C87.3334 75.6 94.4 83.4667 97.2 91.7333C100 99.6 100 105.333 97.3334 105.333C96.1334 105.333 95.3334 104.133 95.3334 102.267C95.2 97.4667 90.6667 88.8 85.8667 84.1333C80.2667 78.9333 69.4667 75.4667 62.4 76.8C55.6 78 46.8 83.0667 43.3334 88C41.8667 90.1333 39.8667 94.9333 38.9334 98.6667L37.3334 105.333H31.7334H26L26.8 99.6C28.2667 89.3333 33.3334 80.8 42 74.5333C48.5334 69.6 53.3334 68.2667 63.4667 68.1333C70.2667 68 73.6 68.8 79.0667 71.4667ZM76.4 80.6667C84.9334 84.2667 89.6 90 92.4 100.267C93.4667 104.133 93.3334 105.333 92.1334 105.333C91.3334 105.333 89.8667 102.533 88.9334 99.0667C84.6667 83.4667 64.9334 76.8 52.1334 86.8C48.1334 90 43.3334 98.5333 43.3334 102.533C43.3334 105.6 41.2 107.467 40.4 105.067C39.2 101.733 42.2667 93.6 46.4 88.6667C53.8667 79.6 66 76.4 76.4 80.6667ZM249.6 81.4667C255.2 84.1333 262 91.3333 262 94.4C262 97.0667 259.333 96.1333 257.867 92.9333C256.133 89.2 249.067 84.2667 242.8 82.5333C232.667 79.7333 219.733 87.2 216.133 98C213.733 104.8 210.667 106.133 212 99.8667C215.333 83.3333 234.267 74.1333 249.6 81.4667ZM75.0667 87.2C87.2 93.4667 90 108.133 81.2 118.667C72.1334 129.333 53.4667 125.867 47.8667 112.4C45.2 106.267 45.6 102.667 49.0667 96C54 86.5333 66 82.5333 75.0667 87.2ZM248.4 88C266.533 99.0667 256.933 127.333 235.867 124.933C217.2 122.933 211.6 99.0667 227.333 88.2667C233.067 84.4 242.267 84.2667 248.4 88Z" fill="#05400F"/>
<path d="M102.667 33.8667C87.8667 38.6667 76.6667 47.3334 76.6667 54.1334V57.3334L100.4 57.0667L124 56.6667V44.6667V32.6667L116 32.4C111.6 32.2667 105.6 32.9334 102.667 33.8667ZM121.733 34.9334C122.667 35.8667 123.333 40.1334 123.333 44.6667C123.333 49.2 122.667 53.4667 121.733 54.4C119.733 56.4 78 56.6667 78 54.6667C78 51.7334 88 42.5334 94.9334 39.3334C106 34 118.8 32 121.733 34.9334Z" fill="#05400F"/>
<path d="M129.6 32.9333C128.133 34.2667 128.533 55.7333 130 56.6667C131.733 57.7333 183.067 57.7333 184.8 56.6667C187.467 54.9333 185.733 49.3333 180.4 43.3333C171.867 33.7333 167.2 32 147.2 32C138 32 130 32.4 129.6 32.9333ZM170.667 38C178 42.6667 185.867 52.6667 183.867 54.6667C182.933 55.6 172.933 55.8667 157.2 55.7333L132 55.3333L131.6 45.4667C131.333 38.5333 131.733 35.2 132.933 34.4C133.867 33.7333 141.333 33.3333 149.467 33.6C163.2 34 164.667 34.2667 170.667 38Z" fill="#05400F"/>
<path d="M121.733 82.9334C122 92.0001 122.667 99.8667 123.467 100.667C124.933 102.133 125.067 96.0001 123.867 78.9334C123.333 72.1334 122.533 66.6667 122.133 66.6667C121.733 66.6667 121.467 74.0001 121.733 82.9334Z" fill="#05400F"/>
<path d="M183.333 83.3333C183.333 92.6666 183.867 98.6666 184.667 98.6666C185.467 98.6666 186 92.6666 186 83.3333C186 74 185.467 68 184.667 68C183.867 68 183.333 74 183.333 83.3333Z" fill="#05400F"/>
<path d="M56.6667 94.5334C52.2667 98.8001 50.6667 103.733 51.8667 108.667C55.3333 122.133 74.8 123.867 80.2667 110.933C84.5333 100.8 77.6 90.6667 66.4 90.6667C61.6 90.6667 59.7333 91.4667 56.6667 94.5334ZM72 94.0001C79.7333 97.7334 81.6 106.533 75.8667 113.2C73.0667 116.667 71.4667 117.333 66.9333 117.333C60.9333 117.2 58 115.6 55.6 111.067C52.2667 104.8 54.9333 96.6667 61.3333 93.8667C66.5333 91.6001 66.8 91.6001 72 94.0001Z" fill="#9DEAA9"/>
<path d="M72 94.0001C79.7333 97.7334 81.6 106.533 75.8667 113.2C73.0667 116.667 71.4667 117.333 66.9333 117.333C60.9333 117.2 58 115.6 55.6 111.067C52.2667 104.8 54.9333 96.6667 61.3333 93.8667C66.5333 91.6001 66.8 91.6001 72 94.0001Z" fill="#9DEAA9"/>
<path d="M230.133 92.5333C225.867 94.9333 223.467 99.6 223.333 105.733C223.333 109.867 224.267 111.867 227.867 115.467C231.6 119.2 233.467 120 238 120C248.8 120 255.867 108.4 251.2 98.2667C248.133 91.6 237.2 88.6667 230.133 92.5333ZM245.733 95.0667C255.067 102.667 250.133 117.333 238.267 117.333C232.133 117.333 228.8 115.2 226.533 109.867C224.933 105.867 224.933 104.667 226.533 100.667C229.733 93.2 239.867 90.1333 245.733 95.0667Z" fill="#9DEAA9"/>
<path d="M245.733 95.0667C255.067 102.667 250.133 117.333 238.267 117.333C232.133 117.333 228.8 115.2 226.533 109.867C224.933 105.867 224.933 104.667 226.533 100.667C229.733 93.2 239.867 90.1333 245.733 95.0667Z" fill="#9DEAA9"/>
</svg>
