<svg width="294" height="160" viewBox="0 0 294 160" fill="none" xmlns="http://www.w3.org/2000/svg">
<path d="M109.333 38.1333C96.8 39.2 88.2667 41.8667 70.5333 50.6667C56.2667 57.7333 50.4 59.8667 43.8667 60.6667C39.2 61.2 34.2667 62.1333 33.0667 62.8C27.8667 65.6 22.6667 81.6 22.6667 94.8C22.6667 104.933 26.5333 108.133 43.6 112.133C56.2667 115.067 57.0667 115.6 59.4667 120C64.9333 130 77.8667 133.067 95.3333 128.133C107.2 124.933 195.867 125.333 211.067 128.667C216.667 129.867 221.867 130.533 222.667 130C223.333 129.6 224 129.867 224 130.667C224 131.467 224.533 131.867 225.2 131.467C225.867 131.067 229.333 130.667 232.8 130.533C236.4 130.4 240.933 129.467 242.933 128.4C244.933 127.467 246.933 126.667 247.333 126.667C248.133 126.667 253.067 125.6 260.4 123.867C266.667 122.267 267.2 118.667 261.067 118.667C256 118.667 246.8 122.533 244.133 125.733C243.2 127.067 241.733 128 240.933 128C240.133 128 240.8 127.067 242.4 125.867C244 124.8 246.267 122.133 247.333 119.867C249.333 116.267 249.867 116 257.467 116C264.267 116 266 115.467 268.933 112.533C272.133 109.333 272.267 108.533 271.6 99.8667C270.533 88 266.933 79.6 261.867 77.6C259.733 76.8 249.067 74.2667 238 72C219.6 68 217.067 67.2 205.867 60.4C192.133 52.2667 173.6 44 161.867 40.6667C154.133 38.5333 122.8 37.0667 109.333 38.1333ZM166.667 45.6C178.4 49.4667 194.8 57.3334 205.333 64.1334C210.133 67.2 217.2 70.5333 221.067 71.4667C230.933 73.7333 230.8 74.2667 220.267 73.6C212.133 73.0667 210.667 72.4 201.2 65.7334C184 53.7334 158.933 44 145.2 44H140.4L142.667 56.6667C143.867 63.6 144.667 69.6 144.4 69.7333C144.267 70 142.267 70 140.133 69.6C136.4 69.0667 136.4 68.9333 135.6 57.8667C135.2 51.7334 134.4 46 134 45.3334C133.467 44.5333 126.4 44 117.733 44C104.8 44 101.2 44.4 96.5333 46.6667C89.6 50.1333 86.2667 54.8 86.2667 61.6V66.6667L74.8 66.5334C68.5333 66.4 57.6 66 50.6667 65.4667L38 64.6667L46.2667 63.6C52.4 62.8 58.4 60.5333 70.2667 54.4C93.6 42.4 93.7333 42.4 119.333 41.4667C144.667 40.5333 154 41.3334 166.667 45.6ZM131.733 46.9333C132.667 47.8667 133.333 52.6667 133.333 59.0667V69.4667L112.4 68.5333C100.8 68.1333 90.5333 67.0667 89.7333 66.2667C84.4 62.1333 90.9333 50.8 100.667 47.3334C107.333 44.9333 129.467 44.6667 131.733 46.9333ZM160 48.9333C171.2 51.6 188.4 59.6 198.667 66.8C203.067 69.8667 206.533 72.5334 206.4 72.8C205.867 73.2 150.4 70.6667 148.533 70C147.733 69.7333 146.4 65.2 145.467 59.7334C144.533 54.4 143.467 48.9333 143.2 47.7333C142.4 45.0667 144.8 45.2 160 48.9333ZM40 68C40 70.2667 33.7333 76 31.3333 76C28.8 76 28.8 73.4667 31.4667 69.6C33.4667 66.6667 40 65.4667 40 68ZM153.333 72.6667C205.733 75.2 248.8 77.3334 249.067 77.3334C249.2 77.3334 249.333 78.1333 249.333 79.2C249.333 83.2 256 89.2 261.733 90.2667C266.4 91.2 267.467 92 267.733 94.6667C268 97.0667 267.2 98.4 265.067 99.3333C261.333 100.933 260.4 106.133 263.333 109.333C265.333 111.467 265.333 111.733 263.333 112.533C262.133 112.933 258.8 113.333 256 113.333C251.067 113.333 251.067 113.333 250.267 107.2C248.533 91.0667 231.2 82.8 217.733 91.4667C211.6 95.4667 208 101.867 208 108.667V113.333H153.333H98.6667V109.067C98.6667 97.8667 88.6667 88 77.3333 88C66.1333 88 56 97.8667 56 108.533C56 112.8 56.4 112.8 39.6 107.867C25.3333 103.6 23.3333 100 26.8 84C28.1333 77.8667 28.5333 77.3334 32.1333 77.3334C36.2667 77.3334 41.3333 73.3333 41.3333 70C41.3333 67.2 42.1333 67.3334 153.333 72.6667ZM262.267 81.6C263.333 82.4 264.8 84.2667 265.467 85.6C266.533 87.7333 266.267 88 262.667 88C258.533 88 252 83.0667 252 79.8667C252 78 259.467 79.2 262.267 81.6ZM88 94.6667C90.1333 96.2667 92.6667 98.6667 93.3333 100.133C95.3333 103.867 97.2 114.667 95.8667 114.667C95.2 114.667 94.6666 113.733 94.6666 112.4C94.6666 111.2 91.7333 107.333 88 103.733C80.2667 96.2667 75.7333 95.4667 69.7333 100.533C66.6667 103.2 66 104.8 66.1333 109.6C66.1333 112.667 66 114.267 65.6 112.933C65.0667 110.533 62 109.867 60.8 111.867C59.8667 113.333 62.6667 115.467 65.3333 115.333C66.4 115.333 68.5333 116.4 69.8667 117.6C73.7333 121.067 81.8667 120.8 85.3333 117.067C87.0667 115.2 87.8667 112.933 87.4667 111.333C86.8 108.8 86.9333 108.8 88.5333 110.933C89.4667 112.267 90.9333 113.333 91.6 113.333C92.4 113.333 93.6 114.133 94.4 114.933C95.4667 116.267 107.867 116.533 151.467 116C204.933 115.333 207.333 115.467 210.4 117.867L213.6 120.4L212.667 117.2C211.867 114.533 212.4 114.8 215.2 118.533C217.067 121.067 218.667 122.533 218.667 121.733C218.667 120.8 218.133 119.733 217.333 119.333C216.667 118.933 216 117.867 216 117.2C216 116.4 216.667 116.267 217.333 116.667C219.067 117.733 219.067 116.533 217.333 113.2C215.733 110.267 212.667 109.867 211.467 112.267C211.067 113.2 210.933 111.467 211.2 108.267C213.2 88.2667 238.933 84.6667 246.133 103.333C248.267 109.067 248.267 109.6 246.133 115.333C243.733 121.467 237.333 127.467 234.267 126.267C233.467 125.867 233.867 125.467 235.2 125.467C236.667 125.333 237.467 124.933 236.933 124.533C236.267 123.733 220 122.933 220 123.733C220 123.867 221.333 124.667 223.067 125.333C225.2 126.133 225.333 126.533 223.733 126.533C222.533 126.667 219.733 125.2 217.6 123.333C213.067 119.6 210.8 120.4 214.267 124.533C216.667 127.333 216.667 127.333 213.733 124.8C212.133 123.467 210.4 121.2 210 119.867C209.2 117.467 206.667 117.333 154.267 117.333H99.3333L95.0667 122.267C92.6667 125.067 90.8 126.933 90.6666 126.533C90.6666 126.133 91.8667 124.4 93.3333 122.667C94.8 120.933 96 119.067 96 118.4C96 116.533 93.6 117.2 92.8 119.467C92.4 120.533 91.3333 121.067 90.6666 120.667C89.8667 120.133 88.4 120.533 87.3333 121.333C86.1333 122.267 83.8667 122.533 81.3333 122C78.8 121.467 77.3333 121.6 77.3333 122.533C77.3333 123.333 76.4 124 75.3333 124C74.2667 124 73.3333 124.533 73.3333 125.333C73.3333 127.6 80.4 126.8 86 124C91.2 121.333 91.3333 121.333 88.2667 123.867C77.4667 133.333 59.2 124 59.4667 109.333C59.6 94.4 75.8667 86 88 94.6667ZM84 102.667C88.1333 106.8 87.2 107.6 80.1333 106.933C76.6667 106.667 72.4 107.067 70.8 107.867C68.5333 109.2 68 109.067 68 107.333C68 104 73.0667 100 77.3333 100C79.6 100 82.5333 101.2 84 102.667ZM268.933 102.133C269.333 103.2 269.067 105.333 268.4 106.933C267.333 109.467 267.067 109.6 264.933 107.467C263.2 105.733 262.933 104.533 264 102.533C265.733 99.4667 267.733 99.2 268.933 102.133ZM77.8667 113.867C82 113.867 85.6 113.333 85.8667 112.667C86.2667 111.867 86.5333 112 86.5333 112.933C86.6667 115.333 81.2 118.667 77.0667 118.667C73.2 118.667 68 114.667 68 111.6C68 110.4 68.4 110.533 69.2 111.867C69.8667 112.933 73.2 113.733 77.8667 113.867ZM208 120C208 121.6 200.8 121.6 196 120C193.467 119.2 194.533 118.933 200.4 118.8C204.667 118.667 208 119.2 208 120Z" fill="#05400F"/>
<path d="M100.267 93.6C100.8 95.0667 107.333 95.4667 146 96.6667C161.467 97.0667 179.867 97.7333 187.067 98.1333C196 98.6667 200 98.5333 200 97.4667C200 96.6667 197.6 96 194.4 96C185.2 96 111.867 93.3333 105.6 92.8C102.267 92.5333 100 92.8 100.267 93.6Z" fill="#05400F"/>
<path d="M103.067 108.8C101.333 109.2 100 110.133 100 110.8C100 111.467 121.467 112 153.6 112C191.2 112 206.8 111.6 205.733 110.533C204.4 109.2 109.067 107.6 103.067 108.8Z" fill="#05400F"/>
<path d="M221.2 101.2C217.067 105.333 216.4 109.067 218.933 113.733C221.2 118.267 224.133 119.867 229.6 120C233.467 120 235.2 119.067 238 115.733C247.467 104.533 231.6 90.9333 221.2 101.2ZM236 102.667C241.6 108.267 237.333 118.667 229.333 118.667C224.267 118.667 220 114.4 220 109.333C220 104.267 224.267 100 229.333 100C231.6 100 234.533 101.2 236 102.667Z" fill="#05400F"/>
<path d="M222.133 111.333C221.733 112.4 221.867 113.467 222.4 113.467C222.933 113.6 224.533 113.867 226 114.133C227.467 114.267 230 114.933 231.733 115.467C236 116.667 235.6 112.267 231.2 110.667C226.4 108.8 223.067 109.067 222.133 111.333Z" fill="#05400F"/>
<path d="M36.6667 117.867L32.6667 119.6L36.6667 120.533C44.4 122.4 45.3333 122.4 46.1333 121.2C46.5333 120.533 46.1333 120 45.3333 120C44.5333 120 44.1333 119.467 44.5333 118.8C45.2 117.867 42.2667 115.733 40.9333 116C40.8 116.133 38.9333 116.933 36.6667 117.867Z" fill="#05400F"/>
</svg>
