<svg width="294" height="160" viewBox="0 0 294 160" fill="none" xmlns="http://www.w3.org/2000/svg">
<path d="M79 40C74.2 40.6667 65 42.4 58.3333 43.7333C46.7333 46.1333 46.3333 46.2667 46.6 49.7333C46.7333 52.5333 45.1333 54.5333 38.3333 60.1333C33.6667 63.8667 29.4 68 29 69.2C26.8667 74.5333 19 102.133 19 104.4C19 105.867 21 108.933 23.4 111.333C27.2667 115.2 29 115.867 37.2667 116.667C46.0667 117.6 46.7333 117.867 47.5333 121.2C51 137.733 72.8667 144.4 85.5333 132.933C87.2667 131.333 89.8 127.733 91 124.8L93.4 119.6L107.133 119.867C114.733 119.867 139.8 120.4 162.733 120.8C199.4 121.6 204.6 122 205.4 123.867C209.8 136.267 225.533 142.267 237.533 136C243 133.333 248.333 127.6 248.333 124.533C248.333 123.067 250.733 122.667 258.067 122.667C271.933 122.667 273 121.6 272.867 108.4C272.733 99.6 272.067 96.8 268.6 89.8667C266.333 85.4667 262.867 80.6667 261 79.4667C259 78.1333 249.267 75.3333 239.267 73.2C206.733 66.2667 202.733 65.2 185.667 58C164.333 48.9333 154.867 45.8667 139.8 42.5333C125.8 39.4667 92.4667 38.1333 79 40ZM136.733 45.3333C150.733 48 167.133 53.4667 190.333 63.2C200.2 67.3333 211.267 70.5333 224.2 73.2C242.067 76.9333 247.933 78.6667 242.333 78.6667C235.533 78.6667 252.333 89.6 261.933 91.3333C265.8 92.1333 267.133 93.0667 268.2 96.2667C270.2 101.733 270.067 104 267.933 104C266.867 104 264.733 105.467 263 107.333C258.467 112.133 255.667 111.6 253.933 105.6C252.2 100.133 245.933 92.9333 240.067 89.8667C225.667 82.4 205.933 90.1333 200.333 105.467L198.733 110L155.8 107.733C132.333 106.533 109.4 105.467 105 105.333C97.2667 105.2 96.8667 105.067 93.9333 100.267C84.0667 84.2667 60.2 82.6667 48.0667 97.0667L44.7333 101.067L35.1333 99.3333C29.9333 98.4 25.2667 97.4667 24.8667 97.0667C24.0667 96.1333 27 83.7333 28.4667 82.1333C29.1333 81.4667 34.6 78.9333 40.6 76.6667C49 73.3333 51.6667 71.7333 51.6667 69.8667C51.6667 67.7333 50.3333 67.2 43.8 66.6667L35.8 66L40.4667 62.5333C48.4667 56.2667 50.8667 53.4667 50.2 50.9333C49.5333 48.8 51.1333 48.2667 62.4667 46.1333C89.8 40.9333 112.067 40.6667 136.733 45.3333ZM48.8667 70.5333C46.7333 72.4 29.6667 78.5333 29.6667 77.3333C29.6667 76.6667 30.2 74.6667 31 72.8C32.2 69.6 32.8667 69.3333 41.2667 69.3333C46.3333 69.3333 49.6667 69.8667 48.8667 70.5333ZM261.133 84.1333C265.4 88.1333 265.267 89.8667 260.733 88.6667C255 87.3333 245.667 82.5333 245.667 81.0667C245.667 78.5333 257.667 80.8 261.133 84.1333ZM80.0667 91.3333C86.6 94.1333 90.8667 98.2667 93.8 104.667C96.8667 111.2 97 116 94.3333 116C93.2667 116 92.4667 115.6 92.6 114.933C93.5333 111.467 90.3333 103.733 86.2 99.7333C73.9333 87.3333 52.3333 92.5333 48.0667 108.8C46.3333 115.333 42.3333 117.333 43.8 110.933C47.9333 93.7333 64.3333 84.8 80.0667 91.3333ZM239 92.2667C247 96.2667 252.467 104.533 253.4 113.2C253.933 118.8 253.667 120 251.8 120C250.2 120 249.667 118.667 249.667 114.667C249.667 104.933 242.733 96.2667 232.6 93.2C219.8 89.4667 204.333 100.667 204.333 114C204.333 117.467 203.8 118.667 202.2 118.667C200.333 118.667 200.067 117.6 200.867 112.267C203.267 94.4 222.867 84.1333 239 92.2667ZM80.0667 98.6667C93.4 106.8 92.7333 125.6 78.8667 133.067C56.8667 144.8 38.4667 113.067 59 98.9333C64.7333 95.0667 73.9333 94.9333 80.0667 98.6667ZM237.8 99.0667C250.867 107.733 249.4 126.667 235.4 133.467C218.467 141.6 200.733 123.2 209.533 106.667C215 96.2667 228.333 92.6667 237.8 99.0667ZM37.9333 102.133L44.0667 102.933L42.7333 107.2C42.0667 109.467 41.2667 112 41 112.8C40.6 114 38.7333 114 34.0667 113.067C26.7333 111.467 24.6 110 22.8667 105.6C21.1333 101.2 22.6 99.6 27.5333 100.533C29.8 100.933 34.4667 101.6 37.9333 102.133ZM268.2 118.133C267.267 119.2 264.2 120 260.733 120C255.8 120 254.867 119.6 255.533 117.867C255.933 116.667 256.333 114.933 256.333 113.867C256.333 112.8 257.267 112 258.467 112C259.667 112 262.467 110.4 264.867 108.4L269 104.933L269.4 110.533C269.667 113.6 269.133 117.067 268.2 118.133ZM152.333 110C174.067 111.067 193.4 112 195.4 112C198.333 112 199 112.533 199 115.333V118.667L169.4 118C153 117.6 130.6 116.933 119.4 116.533C100.2 115.733 99.2667 115.6 98.4667 112.8C97 107.2 97.4 106.933 105.4 107.467C109.533 107.733 130.733 108.933 152.333 110Z" fill="#05400F"/>
<path d="M99 48.2667C74.7333 49.2 69 50.2667 58.8667 55.3334C48.0667 60.8 48.2 62.2667 59.2667 63.3334C64.6 63.7334 75.6667 65.3334 83.6667 66.6667C110.867 71.4667 195 76.6667 195 73.6C195 70.8 170.867 57.8667 157.667 53.6C139.933 47.8667 129.533 46.9334 99 48.2667ZM129.133 58.6667C130.067 63.4667 130.867 67.8667 130.867 68.4C131 69.7334 113.667 68.6667 97.6667 66.5334C82.2 64.4 82.7333 64.9334 86.8667 57.3334L90.3333 50.8L100.333 50.2667C105.8 50 114.2 49.8667 119 49.8667L127.533 50L129.133 58.6667ZM153.8 54.6667C163.8 57.6 185.8 68.2667 188.333 71.3334C189.8 73.0667 189.4 73.2 186.2 72.6667C184.067 72.4 172.6 71.7334 160.6 71.3334C148.733 70.9334 137.533 70 135.8 69.3334C133.4 68.5334 132.6 66.8 131.933 62.1334C131.4 58.8 130.733 54.5334 130.2 52.8C129.533 49.7334 129.533 49.7334 137.267 50.9334C141.533 51.4667 149 53.2 153.8 54.6667ZM87 51.6C86.8667 54 80.6 63.3334 79.2667 63.0667C78.4667 62.8 72.6 62.2667 66.4667 61.8667C59.9333 61.3334 55.4 60.4 55.8 59.7334C58.4667 55.3334 87 48 87 51.6Z" fill="#05400F"/>
<path d="M66.0667 102.267C64.4667 102.533 61.5333 104.667 59.6667 106.8C52.0667 116 58.0667 129.333 69.9333 129.333C84.6 129.333 88.6 107.6 74.7333 102.8C72.4667 102 70.2 101.467 69.8 101.467C69.4 101.6 67.6667 102 66.0667 102.267ZM76.7333 106.667C81.1333 110.133 82.4667 116 79.8 121.067C75.1333 130 62.0667 128.267 58.6 118.267C57.4 115.2 60.7333 107.333 63.9333 105.467C67.6667 103.333 73 103.733 76.7333 106.667Z" fill="#9DEAA9"/>
<path d="M76.7333 106.667C81.1333 110.133 82.4667 116 79.8 121.067C75.1333 130 62.0667 128.267 58.6 118.267C57.4 115.2 60.7333 107.333 63.9333 105.467C67.6667 103.333 73 103.733 76.7333 106.667Z" fill="#9DEAA9"/>
<path d="M222.2 102.667C213.4 106.267 210.867 118.667 217.533 125.467C226.333 134.133 240.333 128.133 240.333 115.733C240.333 111.067 239.533 109.067 236.733 106.4C232.467 102.533 226.333 100.933 222.2 102.667ZM235 107.333C238.333 110.267 239.267 115.067 237.667 119.467C235.667 124.533 232.6 126.533 226.733 126.667C220.2 126.667 214.333 120.267 215.533 114.133C216.733 107.867 222.333 103.6 228.067 104.533C230.6 104.933 233.8 106.133 235 107.333Z" fill="#9DEAA9"/>
<path d="M235 107.333C238.333 110.267 239.267 115.067 237.667 119.467C235.667 124.533 232.6 126.533 226.733 126.667C220.2 126.667 214.333 120.267 215.533 114.133C216.733 107.867 222.333 103.6 228.067 104.533C230.6 104.933 233.8 106.133 235 107.333Z" fill="#9DEAA9"/>
</svg>
