<svg width="294" height="160" viewBox="0 0 294 160" fill="none" xmlns="http://www.w3.org/2000/svg">
<path d="M110.267 45.4667C96.8 47.0667 86.8 49.8667 66.6667 57.6C51.7334 63.4667 48 64.2667 39.0667 64.5334C33.4667 64.5334 28.5334 65.0667 28 65.6C27.4667 66.1334 26.9334 70.9334 26.8 76.2667C26.6667 81.6 25.7334 87.4667 24.8 89.2C22 94.2667 22.5334 104.533 25.8667 109.067C29.4667 114.133 33.2 115.6 48.6667 117.867C55.6 118.933 61.4667 120.4 61.7334 121.2C62.8 124.533 68.8 130.4 72.6667 132C78.1334 134.267 90 133.067 94.2667 129.867C96.2667 128.533 98.8 125.733 100 123.6L102.133 120H156.4H210.667L212.933 124C216.267 129.867 222.8 133.333 230.667 133.333C238.4 133.333 244 130.4 249.2 123.6C252.133 119.733 253.867 118.8 259.6 118.133C264.8 117.333 267.467 116.133 270.933 112.667C274.933 108.667 275.333 107.6 275.333 100.533C275.333 91.7334 271.733 84 266 79.8667C263.733 78.2667 255.2 76.2667 240.667 74C214.133 69.8667 213.867 69.7334 191.733 59.8667C160.267 45.8667 138.933 42.1334 110.267 45.4667ZM161.333 51.7334C172.4 54.8 173.2 55.2 194.8 64.6667C209.867 71.3334 213.733 72.4 235.067 76.1334C248 78.2667 260.4 80.8 262.4 81.6C267.2 83.4667 272.667 92.8 272.667 99.2C272.667 108.667 268.267 113.333 257.467 115.333L252.667 116.267V111.333C252.667 101.6 244.667 92.2667 234.4 90C222.133 87.4667 208.667 98.9334 208.667 112.133V116H156H103.333V110.933C103.333 96.1334 87.4667 85.7334 73.8667 91.6C68.2667 94 68.1334 94 62.2667 91.0667C58.1334 88.9334 53.8667 88 48.9334 88C41.7334 88 41.7334 88 42.6667 84.4C43.2 82.2667 43.7334 80.4 44 80.1334C44.4 79.8667 90.8 81.3334 147.2 83.4667L249.867 87.4667L253.2 91.0667C256 94 257.6 94.6667 263.333 94.6667C270.8 94.6667 272 92.6667 267.333 88C265.067 85.7334 262.8 85.3334 253.733 85.3334C247.6 85.2 237.867 84.9334 232 84.6667C221.333 84 169.733 82 132 80.6667C36.2667 77.2 30 76.6667 30 71.3334C30 68.5334 30.8 68.2667 40.4 67.7334C48.5334 67.2 54.2667 65.7334 68 60.4C83.0667 54.5334 95.3334 51.0667 107.333 48.8C109.2 48.5334 120 48.4 131.333 48.6667C146.667 49.0667 154.4 49.8667 161.333 51.7334ZM41.7334 79.3334C42 79.6 41.2 81.6 40 83.8667C38.4 87.0667 37.0667 88 34.1334 88C29.3334 88 29.0667 87.6 29.7334 81.8667L30.2667 77.0667L35.7334 77.8667C38.8 78.4 41.4667 79.0667 41.7334 79.3334ZM264.933 88.9334C268.533 92.2667 267.867 93.2 262.4 92.4C253.867 91.0667 250.667 86.6667 258.267 86.6667C260.533 86.6667 263.6 87.6 264.933 88.9334ZM60.9334 92.8C63.3334 94 65.6 95.2 65.8667 95.4667C66.1334 95.7334 65.0667 97.4667 63.4667 99.4667C62 101.333 60.2667 105.867 59.8667 109.467C58.9334 116.933 59.6 116.667 44.1334 114.133C35.0667 112.667 33.0667 111.867 29.7334 108.133C25.7334 103.6 24.8 96.8 27.4667 91.7334C28.9334 89.0667 29.7334 88.9334 42.6667 89.7334C51.6 90.2667 58 91.3334 60.9334 92.8ZM91.4667 96.4C108.133 107.467 99.2 132.267 79.3334 130.267C74.5334 129.733 72.5334 128.533 68.4 124.133C64 119.6 63.3334 117.867 63.3334 112.667C63.3334 109.333 64.2667 104.8 65.3334 102.533C70 93.6 82.8 90.5334 91.4667 96.4ZM240.267 96C246.4 99.7334 249.2 104.667 249.2 111.867C249.2 130.4 224.933 137.6 215.333 121.867C205.067 105.467 223.867 85.8667 240.267 96Z" fill="#05400F"/>
<path d="M105.2 53.3334C95.7334 55.7334 82.9334 61.4667 81.4667 63.8667C81.0667 64.5334 82.9334 67.0667 85.7334 69.6L90.9334 74.2667L110.8 75.0667C121.733 75.6 144.133 76.2667 160.667 76.6667C177.2 77.0667 193.467 77.7334 197.067 78.1334C200.533 78.5334 203.333 78.2667 203.333 77.4667C203.333 75.2 186.933 63.7334 177.333 59.2C172.267 56.8 163.333 53.8667 157.733 52.8C143.2 49.8667 117.333 50.1334 105.2 53.3334ZM137.867 61.4667C138.8 66 139.867 70.5334 140.267 71.6C140.933 73.4667 138.133 73.6 116.933 73.0667C95.2001 72.5334 92.2667 72.2667 89.0667 69.8667C83.4667 65.6 83.8667 64.2667 92.1334 60.4C103.733 55.2 110.8 53.6 124.133 53.4667L136.267 53.3334L137.867 61.4667ZM162 56.1334C173.067 59.2 186.8 66 194 72L198.667 75.8667L171.333 75.0667C156.267 74.6667 143.867 74.1334 143.6 74C143.333 73.7334 142.133 69.0667 140.8 63.4667L138.4 53.3334H145.2C148.933 53.3334 156.533 54.5334 162 56.1334Z" fill="#05400F"/>
<path d="M110.667 111.467C112.667 112.933 120.533 113.333 149.867 113.467C170.133 113.467 190.667 113.6 195.733 113.733C200.667 114 204.667 113.733 204.667 113.2C204.667 112.667 186.8 111.867 165.067 111.467C143.2 111.067 121.467 110.4 116.667 110.133C109.067 109.6 108.4 109.867 110.667 111.467Z" fill="#05400F"/>
<path d="M79.0667 97.3334C69.6 99.0667 64.4 107.733 67.3333 116.667C69.4667 123.2 74.4 126.667 81.6 126.667C86.6667 126.667 88.2667 126 92.1333 122.133C95.6 118.667 96.6667 116.533 96.6667 112.8C96.6667 106.4 93.8667 101.067 89.0667 98.6667C84.2667 96.2668 84.8 96.2668 79.0667 97.3334ZM91.0667 103.333C94.5333 107.467 95.0667 115.333 92 119.6C89.3333 123.467 82 125.733 77.7333 124.133C73.2 122.4 68.6667 116.4 68.6667 112.133C68.9333 100.267 83.3333 94.5334 91.0667 103.333Z" fill="#9DEAA9"/>
<path d="M91.0667 103.333C94.5333 107.467 95.0667 115.333 92 119.6C89.3333 123.467 82 125.733 77.7333 124.133C73.2 122.4 68.6667 116.4 68.6667 112.133C68.9333 100.267 83.3333 94.5334 91.0667 103.333Z" fill="#9DEAA9"/>
<path d="M220.933 100.667C213.6 106.8 214.267 118.933 222.267 124.533C223.867 125.733 227.867 126.667 231.067 126.667C236 126.667 237.733 125.867 241.6 122C246 117.6 246.267 116.8 245.6 111.067C245.067 106.133 244 103.867 240.8 101.067C235.2 96.0001 226.667 95.8668 220.933 100.667ZM236.667 100.667C251.2 108.133 240.267 130.267 225.6 123.333C216.933 119.2 215.6 110.133 222.533 103.2C227.467 98.2668 230.8 97.6001 236.667 100.667Z" fill="#9DEAA9"/>
<path d="M236.667 100.667C251.2 108.133 240.267 130.267 225.6 123.333C216.933 119.2 215.6 110.133 222.533 103.2C227.467 98.2668 230.8 97.6001 236.667 100.667Z" fill="#9DEAA9"/>
</svg>
