<svg width="294" height="160" viewBox="0 0 294 160" fill="none" xmlns="http://www.w3.org/2000/svg">
<path d="M46.9333 36.9334C35.4667 44.8 28 59.0667 28 73.3334C28 77.6 27.3333 81.6 26.5333 82C23.7333 83.7334 22.5333 89.6 24 94C26.2667 101.067 30.2667 103.6 41.6 105.333C51.4667 106.933 52 107.2 53.3333 111.333C54.9333 116.267 61.8667 123.333 67.0667 125.2C77.0667 129.067 92.8 124.8 97.2 117.2L99.3333 113.333H154.8H210.133L213.067 117.333C222.267 129.733 244.4 129.733 253.6 117.333C255.733 114.267 257.6 113.333 260.8 113.333C263.2 113.333 266.667 112.667 268.4 111.867C275.6 108.667 278.4 93.6 273.333 86C271.867 83.7334 270.667 81.2 270.667 80.2667C270.667 76.4 266.133 69.2 262.8 67.4667C260.933 66.4 247.067 63.7334 232 61.4667C202.267 56.9334 204.4 57.7334 184.267 43.6C171.067 34.2667 163.333 33.3334 101.2 33.3334H52.4L46.9333 36.9334ZM148 37.8667C158.667 38.1334 169.467 39.2 172 40C174.533 40.9334 181.867 45.6 188.267 50.2667C198.267 57.7334 200.133 59.7334 201.467 64.4C203.6 72 203.333 90 201.067 97.3334L199.2 103.333L169.6 103.733L140 104V85.3334V66.6667L167.067 66.4L194 66L194.4 62.4C194.8 59.4667 193.333 57.6 185.867 51.4667C172.933 40.8 169.333 39.8667 138.667 39.0667C108 38.4 105.467 39.0667 100.267 49.6C96.8 56.5334 97.2 59.8667 101.733 64C104.133 66.4 106.4 66.6667 120.933 66.6667H137.333V85.3334V104H122.8C108.8 104 108.133 104.133 105.6 107.333C102 111.867 101.2 111.467 102.133 105.6C104.667 89.3334 90.4 74.5334 74 76.2667C62.5333 77.6 52.8 87.4667 51.4667 98.9334C51.2 101.333 50.5333 103.333 49.8667 103.333C40.2667 102.8 32.5333 100.533 29.7333 97.6C24.5333 92 25.8667 84 32.1333 84C35.8667 84 36 83.8667 36 76.9334C36 73.2 36.5333 68 37.3333 65.4667C38.4 61.6 38.2667 60.9334 36 60.4C32.5333 59.4667 32.6667 58.9334 37.2 51.8667C41.4667 45.3334 45.7333 41.0667 50.6667 38.4C54.1333 36.6667 100.267 36.4 148 37.8667ZM139.333 51.6C138.8 57.3334 138.267 62.8 138 63.6C137.333 65.7334 111.333 66 106.133 64C98.4 61.0667 98.8 51.4667 106.933 44.6667C110.667 41.6 111.867 41.3334 125.467 41.3334H140.133L139.333 51.6ZM173.867 46C177.6 47.8667 183.6 52 187.333 55.2C192.933 60.2667 193.6 61.3334 192.133 63.2C190.667 65.0667 186.533 65.3334 165.2 65.3334H140L140.667 57.6C141.2 53.4667 141.733 48 142.133 45.4667L142.8 40.9334L154.933 41.7334C164.133 42.2667 168.667 43.3334 173.867 46ZM232 64.6667C259.6 68.9334 260 68.9334 260 71.3334C260 72.4 260.667 76.2667 261.467 80C262.8 86 263.2 86.6667 266.533 86.6667C271.333 86.6667 274 91.4667 272.933 98.1334C271.6 106 268.667 109.333 262.933 109.333H258L258.4 102.4C259.067 91.8667 254.8 84.4 245.333 79.6C237.067 75.4667 230.8 75.0667 223.333 78.5334C212.8 83.4667 207.6 91.8667 208.133 103.2C208.533 110.8 206.667 112.533 203.2 107.467C201.333 104.4 201.2 103.467 202.8 99.6C204.8 94.9334 205.333 71.8667 203.733 64.2667C202.667 60 202.8 59.8667 206.4 60.5334C208.4 60.9334 219.867 62.8 232 64.6667ZM34.4 69.6C33.7333 73.3334 33.4667 77.4667 33.7333 78.9334C34.1333 80.4 33.7333 81.3334 32.5333 81.3334C31.2 81.3334 30.6667 79.7334 30.6667 76.1334C30.6667 68.5334 32.1333 62.6667 34 62.6667C35.2 62.6667 35.3333 64.2667 34.4 69.6ZM266.133 76.8C268.4 82.2667 268.533 85.7334 266.4 85.0667C264.933 84.5334 264.4 83.2 262.133 74.2667C260.933 69.0667 263.6 70.9334 266.133 76.8ZM89.4667 83.3334C98.6667 89.2 101.733 104.4 95.6 113.467C83.6 131.333 56.6667 124.667 54.9333 103.333C53.3333 84.6667 73.4667 73.0667 89.4667 83.3334ZM244.133 82.1334C252 86.1334 257.067 97.0667 255.333 106.133C254.133 112.933 245.067 122.133 238.267 123.333C230 124.933 224 122.933 217.867 116.8C211.333 110.267 209.467 103.867 211.867 95.8667C216.133 81.7334 231.2 75.3334 244.133 82.1334ZM199.733 106.933C200.667 107.867 201.333 108.8 201.333 109.333C201.333 109.733 131.333 109.867 106.8 109.333C106.533 109.333 107.067 108.4 108 107.333C109.467 105.6 116.267 105.333 153.867 105.333C186.533 105.333 198.533 105.733 199.733 106.933Z" fill="#05400F"/>
<path d="M56.6667 41.3334C52.9333 43.2001 49.6 46.6667 45.7333 52.5334C42.6667 57.2001 40.5333 61.4667 40.9333 61.8667C41.4667 62.2667 49.6 62.6667 59.0667 62.6667C80.8 62.6667 83.4667 61.6001 91.3333 49.4667C94.5333 44.6667 96.8 40.2667 96.4 39.6001C96.1333 39.0667 88.2667 38.6667 78.9333 38.6667C64.6667 38.6667 61.2 39.0667 56.6667 41.3334ZM90.4 46.8001C88.6667 49.8667 85.3333 54.0001 82.9333 56.1334C78.6667 60.0001 78.4 60.0001 61.2 60.0001C47.7333 60.0001 44 59.6001 44.8 58.2667C48.9333 51.2001 54 45.0667 57.0667 43.4667C59.6 42.0001 65.2 41.4667 77.0667 41.3334H93.4667L90.4 46.8001Z" fill="#05400F"/>
<path d="M65.8667 89.7334C53.4667 100.933 63.3333 120.8 80 118.133C86.9333 117.067 93.3333 109.6 93.3333 102.667C93.3333 91.8667 86.8 85.3334 76 85.3334C71.7333 85.3334 69.6 86.2667 65.8667 89.7334ZM86.1333 90.8C91.2 95.6 92.5333 101.733 89.8667 107.333C85.3333 116.933 74.5333 118.8 67.2 111.467C60 104.267 61.0667 94.6667 69.7333 89.2C74.9333 86 81.7333 86.6667 86.1333 90.8Z" fill="#9DEAA9"/>
<path d="M86.1333 90.8C91.2 95.6 92.5333 101.733 89.8667 107.333C85.3333 116.933 74.5333 118.8 67.2 111.467C60 104.267 61.0667 94.6667 69.7333 89.2C74.9333 86 81.7333 86.6667 86.1333 90.8Z" fill="#9DEAA9"/>
<path d="M222.8 88.6667C213.333 96.8 214.933 111.333 226 116.533C231.6 119.2 235.067 119.2 240.933 116.4C247.6 113.333 251.6 104.267 249.467 97.2C246 85.8667 231.733 81.2 222.8 88.6667ZM239.333 88.8C253.067 95.3333 248.533 116 233.333 116C218.4 116 213.333 94.5333 227.067 88.6667C232.533 86.2667 234 86.2667 239.333 88.8Z" fill="#9DEAA9"/>
<path d="M239.333 88.8C253.067 95.3333 248.533 116 233.333 116C218.4 116 213.333 94.5333 227.067 88.6667C232.533 86.2667 234 86.2667 239.333 88.8Z" fill="#9DEAA9"/>
</svg>
