<svg width="33" height="33" viewBox="0 0 33 33" fill="none" xmlns="http://www.w3.org/2000/svg">
<path d="M20.5001 29.8333L19.9454 30.6653C20.096 30.7657 20.271 30.8233 20.4518 30.832C20.6326 30.8408 20.8124 30.8003 20.9719 30.7149C21.1315 30.6295 21.2649 30.5024 21.3579 30.3471C21.4509 30.1919 21.5001 30.0143 21.5001 29.8333H20.5001ZM16.5001 27.1666L17.0548 26.3346C16.8905 26.2251 16.6975 26.1667 16.5001 26.1667C16.3027 26.1667 16.1097 26.2251 15.9454 26.3346L16.5001 27.1666ZM12.5001 29.8333H11.5001C11.5001 30.0143 11.5492 30.1919 11.6423 30.3471C11.7353 30.5024 11.8687 30.6295 12.0282 30.7149C12.1878 30.8003 12.3676 30.8408 12.5484 30.832C12.7291 30.8233 12.9042 30.7657 13.0548 30.6653L12.5001 29.8333ZM21.0548 29.0013L17.0548 26.3346L15.9454 27.9986L19.9454 30.6653L21.0548 29.0013ZM15.9454 26.3346L11.9454 29.0013L13.0548 30.6653L17.0548 27.9986L15.9454 26.3346ZM17.7694 4.86795L17.8254 4.93462L19.3494 3.63862L19.2921 3.57195L17.7694 4.86795ZM20.9121 6.21328L20.9988 6.20528L20.8388 4.21195L20.7521 4.21995L20.9121 6.21328ZM22.7948 7.99995L22.7868 8.08795L24.7801 8.24795L24.7881 8.16128L22.7948 7.99995ZM24.0654 11.1733L24.1321 11.2306L25.4281 9.70795L25.3614 9.65062L24.0654 11.1733ZM24.1321 13.7693L24.0654 13.8253L25.3614 15.3493L25.4281 15.292L24.1321 13.7693ZM22.7868 16.912L22.7948 16.9986L24.7881 16.8386L24.7801 16.752L22.7868 16.912ZM21.0001 18.7946L20.9121 18.7866L20.7521 20.78L20.8388 20.788L21.0001 18.7946ZM17.8268 20.0653L17.7694 20.132L19.2921 21.428L19.3494 21.3613L17.8268 20.0653ZM15.2308 20.132L15.1734 20.0653L13.6508 21.3613L13.7081 21.428L15.2308 20.132ZM12.0881 18.7866L12.0014 18.7933L12.1614 20.788L12.2481 20.7813L12.0881 18.7866ZM10.2054 17L10.2134 16.912L8.22009 16.752L8.21209 16.8386L10.2054 17ZM8.93476 13.8266L8.86809 13.7693L7.57209 15.292L7.63876 15.3493L8.93476 13.8266ZM8.86809 11.2306L8.93476 11.1733L7.63876 9.65062L7.57209 9.70795L8.86809 11.2306ZM10.2134 8.08795L10.2054 8.00128L8.21209 8.16128L8.22009 8.24795L10.2134 8.08795ZM12.0001 6.20528L12.0881 6.21328L12.2481 4.21995L12.1614 4.21195L12.0001 6.20528ZM15.1734 4.93462L15.2308 4.86795L13.7081 3.57195L13.6508 3.63862L15.1734 4.93462ZM12.0881 6.21328C12.6672 6.25972 13.2491 6.16789 13.7857 5.94534C14.3224 5.7228 14.7985 5.37592 15.1748 4.93328L13.6508 3.63862C13.4797 3.83967 13.2633 3.99722 13.0195 4.09829C12.7756 4.19936 12.5112 4.24106 12.2481 4.21995L12.0881 6.21328ZM10.2054 8.00128C10.1863 7.76069 10.2196 7.51747 10.3032 7.29103C10.3867 7.06459 10.5184 6.85899 10.6892 6.68846C10.86 6.51792 11.0658 6.38651 11.2924 6.30332C11.5189 6.22012 11.7609 6.18713 12.0014 6.20662L12.1614 4.21328C11.632 4.17062 11.0996 4.2435 10.601 4.42688C10.1025 4.61027 9.64979 4.89978 9.27419 5.27538C8.89859 5.65098 8.60908 6.1037 8.42569 6.60222C8.24231 7.10074 8.16943 7.63315 8.21209 8.16262L10.2054 8.00128ZM8.93476 11.1733C9.37696 10.797 9.72347 10.3211 9.94577 9.78465C10.1681 9.24826 10.2598 8.66673 10.2134 8.08795L8.22009 8.24795C8.26276 8.78128 8.04676 9.30395 7.63876 9.65062L8.93476 11.1733ZM8.86809 13.7693C8.68421 13.6128 8.53652 13.4183 8.43524 13.1991C8.33396 12.9799 8.28151 12.7414 8.28151 12.5C8.28151 12.2585 8.33396 12.02 8.43524 11.8008C8.53652 11.5816 8.68421 11.3871 8.86809 11.2306L7.57209 9.70795C7.16774 10.0522 6.84298 10.4801 6.62028 10.9622C6.39757 11.4442 6.28223 11.9689 6.28223 12.5C6.28223 13.031 6.39757 13.5557 6.62028 14.0377C6.84298 14.5198 7.16774 14.9477 7.57209 15.292L8.86809 13.7693ZM10.2134 16.912C10.2599 16.3328 10.168 15.751 9.94548 15.2143C9.72294 14.6777 9.37606 14.2016 8.93343 13.8253L7.63876 15.3493C8.04676 15.696 8.26276 16.2186 8.22009 16.752L10.2134 16.912ZM12.0001 18.7946C11.7594 18.814 11.5174 18.7808 11.2908 18.6973C11.0641 18.6139 10.8584 18.4822 10.6877 18.3114C10.517 18.1406 10.3855 17.9347 10.3022 17.708C10.2189 17.4814 10.1859 17.2393 10.2054 16.9986L8.21209 16.8386C8.16943 17.3681 8.24231 17.9005 8.42569 18.399C8.60908 18.8975 8.89859 19.3503 9.27419 19.7259C9.64979 20.1015 10.1025 20.391 10.601 20.5744C11.0996 20.7577 11.632 20.8306 12.1614 20.788L12.0001 18.7946ZM17.7694 20.132C17.613 20.3158 17.4184 20.4635 17.1993 20.5648C16.9801 20.6661 16.7415 20.7185 16.5001 20.7185C16.2587 20.7185 16.0201 20.6661 15.8009 20.5648C15.5818 20.4635 15.3872 20.3158 15.2308 20.132L13.7081 21.428C14.0523 21.8323 14.4803 22.1571 14.9623 22.3798C15.4444 22.6025 15.9691 22.7178 16.5001 22.7178C17.0311 22.7178 17.5558 22.6025 18.0379 22.3798C18.5199 22.1571 18.9479 21.8323 19.2921 21.428L17.7694 20.132ZM22.7948 16.9986C22.8141 17.2393 22.7809 17.4814 22.6975 17.708C22.614 17.9346 22.4823 18.1403 22.3115 18.311C22.1407 18.4817 21.9348 18.6132 21.7082 18.6965C21.4815 18.7798 21.2394 18.8128 20.9988 18.7933L20.8388 20.788C21.3682 20.8306 21.9006 20.7577 22.3992 20.5744C22.8977 20.391 23.3504 20.1015 23.726 19.7259C24.1016 19.3503 24.3911 18.8975 24.5745 18.399C24.7579 17.9005 24.8308 17.3681 24.7881 16.8386L22.7948 16.9986ZM24.0654 13.8253C23.623 14.2017 23.2764 14.6779 23.0541 15.2145C22.8318 15.7512 22.7402 16.333 22.7868 16.912L24.7801 16.752C24.7374 16.2186 24.9534 15.696 25.3614 15.3493L24.0654 13.8253ZM24.1321 11.2306C24.316 11.3871 24.4637 11.5816 24.5649 11.8008C24.6662 12.02 24.7187 12.2585 24.7187 12.5C24.7187 12.7414 24.6662 12.9799 24.5649 13.1991C24.4637 13.4183 24.316 13.6128 24.1321 13.7693L25.4281 15.292C25.8324 14.9477 26.1572 14.5198 26.3799 14.0377C26.6026 13.5557 26.718 13.031 26.718 12.5C26.718 11.9689 26.6026 11.4442 26.3799 10.9622C26.1572 10.4801 25.8324 10.0522 25.4281 9.70795L24.1321 11.2306ZM22.7868 8.08795C22.7403 8.66706 22.8322 9.24892 23.0547 9.78557C23.2772 10.3222 23.6241 10.7983 24.0668 11.1746L25.3614 9.65062C25.1604 9.47956 25.0028 9.26319 24.9018 9.01933C24.8007 8.77547 24.759 8.51108 24.7801 8.24795L22.7868 8.08795ZM21.0001 6.20528C21.2408 6.18595 21.4828 6.21915 21.7094 6.30259C21.936 6.38603 22.1418 6.51771 22.3125 6.68853C22.4832 6.85934 22.6147 7.06521 22.698 7.29187C22.7813 7.51854 22.8143 7.75926 22.7948 7.99995L24.7881 8.16128C24.8308 7.63182 24.7579 7.09941 24.5745 6.60089C24.3911 6.10237 24.1016 5.64965 23.726 5.27405C23.3504 4.89844 22.8977 4.60894 22.3992 4.42555C21.9006 4.24217 21.3682 4.16929 20.8388 4.21195L21.0001 6.20528ZM17.8254 4.93462C18.2017 5.37682 18.679 5.72333 19.2154 5.94563C19.7518 6.16793 20.3333 6.25967 20.9121 6.21328L20.7521 4.21995C20.489 4.24106 20.2246 4.19936 19.9807 4.09829C19.7369 3.99722 19.5205 3.83967 19.3494 3.63862L17.8254 4.93462ZM19.2934 3.57195C18.9492 3.16714 18.5211 2.84199 18.0388 2.619C17.5565 2.39601 17.0315 2.28052 16.5001 2.28052C15.9687 2.28052 15.4437 2.39601 14.9614 2.619C14.4791 2.84199 14.051 3.16714 13.7068 3.57195L15.2308 4.86795C15.3872 4.68407 15.5818 4.53638 15.8009 4.4351C16.0201 4.33382 16.2587 4.28136 16.5001 4.28136C16.7415 4.28136 16.9801 4.33382 17.1993 4.4351C17.4184 4.53638 17.613 4.68407 17.7694 4.86795L19.2934 3.57195ZM15.1734 20.0653C14.847 19.6817 14.4451 19.3696 13.9927 19.1482C13.5404 18.9268 13.0472 18.801 12.5441 18.7786L12.4561 20.7773C12.9148 20.7973 13.3494 21.0066 13.6508 21.3613L15.1734 20.0653ZM12.5441 18.7786C12.3921 18.7719 12.2398 18.7745 12.0881 18.7866L12.2481 20.78C12.3173 20.7744 12.3868 20.7735 12.4561 20.7773L12.5441 18.7786ZM13.5001 29.8333V19.7773H11.5001V29.8333H13.5001ZM20.9134 18.7866C20.7613 18.7745 20.6086 18.7718 20.4561 18.7786L20.5441 20.7773C20.6134 20.7735 20.6829 20.7744 20.7521 20.78L20.9134 18.7866ZM20.4561 18.7786C19.9527 18.8008 19.4593 18.9265 19.0067 19.1479C18.5541 19.3693 18.1533 19.6816 17.8268 20.0653L19.3494 21.3613C19.4978 21.1872 19.6805 21.0454 19.886 20.945C20.0915 20.8445 20.3155 20.7874 20.5441 20.7773L20.4561 18.7786ZM19.5001 19.7786V29.8333H21.5001V19.7773L19.5001 19.7786Z" fill="black"/>
</svg>
