<svg width="33" height="33" viewBox="0 0 33 33" fill="none" xmlns="http://www.w3.org/2000/svg">
<path d="M29.4 12.55C28.6972 10.8866 27.6784 9.37533 26.4 8.1C25.1247 6.82159 23.6134 5.80276 21.95 5.1C20.2219 4.36875 18.3906 4 16.5 4C14.6094 4 12.7781 4.36875 11.05 5.1C9.38659 5.80276 7.87533 6.82159 6.6 8.1C5.32159 9.37533 4.30276 10.8866 3.6 12.55C2.86875 14.2781 2.5 16.1094 2.5 18C2.5 22.1469 4.32187 26.0531 7.49687 28.7219L7.55 28.7656C7.73125 28.9156 7.95937 29 8.19375 29H24.8094C25.0438 29 25.2719 28.9156 25.4531 28.7656L25.5063 28.7219C28.6781 26.0531 30.5 22.1469 30.5 18C30.5 16.1094 30.1281 14.2781 29.4 12.55ZM24.2938 26.625H8.70625C7.49874 25.5362 6.53365 24.2057 5.87361 22.7198C5.21358 21.234 4.87335 19.6259 4.875 18C4.875 14.8937 6.08437 11.975 8.28125 9.78125C10.4781 7.58437 13.3969 6.375 16.5 6.375C19.6063 6.375 22.525 7.58437 24.7188 9.78125C26.9156 11.9781 28.125 14.8969 28.125 18C28.125 21.3 26.7344 24.4219 24.2938 26.625ZM19.9844 13.6719C19.9374 13.6253 19.8739 13.5992 19.8078 13.5992C19.7417 13.5992 19.6782 13.6253 19.6313 13.6719L16.9906 16.3125C16.4063 16.1562 15.7594 16.3063 15.3 16.7656C15.1373 16.928 15.0082 17.1209 14.9201 17.3333C14.8321 17.5456 14.7867 17.7732 14.7867 18.0031C14.7867 18.233 14.8321 18.4606 14.9201 18.673C15.0082 18.8853 15.1373 19.0782 15.3 19.2406C15.4624 19.4033 15.6553 19.5324 15.8676 19.6205C16.08 19.7086 16.3076 19.7539 16.5375 19.7539C16.7674 19.7539 16.995 19.7086 17.2074 19.6205C17.4197 19.5324 17.6126 19.4033 17.775 19.2406C17.9926 19.0236 18.1492 18.753 18.2287 18.4562C18.3083 18.1593 18.3081 17.8467 18.2281 17.55L20.8687 14.9094C20.9656 14.8125 20.9656 14.6531 20.8687 14.5562L19.9844 13.6719ZM15.8125 10.5H17.1875C17.325 10.5 17.4375 10.3875 17.4375 10.25V7.75C17.4375 7.6125 17.325 7.5 17.1875 7.5H15.8125C15.675 7.5 15.5625 7.6125 15.5625 7.75V10.25C15.5625 10.3875 15.675 10.5 15.8125 10.5ZM23.9375 17.3125V18.6875C23.9375 18.825 24.05 18.9375 24.1875 18.9375H26.6875C26.825 18.9375 26.9375 18.825 26.9375 18.6875V17.3125C26.9375 17.175 26.825 17.0625 26.6875 17.0625H24.1875C24.05 17.0625 23.9375 17.175 23.9375 17.3125ZM24.3344 11.15L23.3625 10.1781C23.3155 10.1316 23.2521 10.1055 23.1859 10.1055C23.1198 10.1055 23.0564 10.1316 23.0094 10.1781L21.2406 11.9469C21.1941 11.9939 21.168 12.0573 21.168 12.1234C21.168 12.1896 21.1941 12.253 21.2406 12.3L22.2125 13.2719C22.3094 13.3688 22.4687 13.3688 22.5656 13.2719L24.3344 11.5031C24.4313 11.4063 24.4313 11.2469 24.3344 11.15ZM10.0031 10.1781C9.95614 10.1316 9.89269 10.1055 9.82656 10.1055C9.76044 10.1055 9.69699 10.1316 9.65 10.1781L8.67813 11.15C8.6316 11.197 8.6055 11.2604 8.6055 11.3266C8.6055 11.3927 8.6316 11.4561 8.67813 11.5031L10.4469 13.2719C10.5437 13.3688 10.7031 13.3688 10.8 13.2719L11.7719 12.3C11.8688 12.2031 11.8688 12.0437 11.7719 11.9469L10.0031 10.1781ZM8.6875 17.0625H6.1875C6.05 17.0625 5.9375 17.175 5.9375 17.3125V18.6875C5.9375 18.825 6.05 18.9375 6.1875 18.9375H8.6875C8.825 18.9375 8.9375 18.825 8.9375 18.6875V17.3125C8.9375 17.175 8.825 17.0625 8.6875 17.0625Z" fill="black"/>
</svg>
