<svg width="33" height="33" viewBox="0 0 33 33" fill="none" xmlns="http://www.w3.org/2000/svg">
<path d="M16.5 3.5C13.9288 3.5 11.4154 4.26244 9.27759 5.6909C7.13975 7.11935 5.47351 9.14968 4.48957 11.5251C3.50563 13.9006 3.24819 16.5144 3.7498 19.0362C4.25141 21.5579 5.48953 23.8743 7.30762 25.6924C9.1257 27.5105 11.4421 28.7486 13.9638 29.2502C16.4856 29.7518 19.0995 29.4944 21.4749 28.5104C23.8503 27.5265 25.8807 25.8603 27.3091 23.7224C28.7376 21.5846 29.5 19.0712 29.5 16.5C29.4964 13.0533 28.1256 9.74882 25.6884 7.31163C23.2512 4.87445 19.9467 3.50364 16.5 3.5ZM16.5 27.5C14.3244 27.5 12.1977 26.8549 10.3887 25.6462C8.57979 24.4375 7.16989 22.7195 6.33733 20.7095C5.50477 18.6995 5.28693 16.4878 5.71137 14.354C6.13581 12.2202 7.18345 10.2602 8.72183 8.72183C10.2602 7.18345 12.2202 6.1358 14.354 5.71136C16.4878 5.28692 18.6995 5.50476 20.7095 6.33733C22.7195 7.16989 24.4375 8.57979 25.6462 10.3887C26.8549 12.1977 27.5 14.3244 27.5 16.5C27.4967 19.4164 26.3367 22.2123 24.2745 24.2745C22.2123 26.3367 19.4164 27.4967 16.5 27.5ZM21.5 19C21.5 19.9283 21.1313 20.8185 20.4749 21.4749C19.8185 22.1313 18.9283 22.5 18 22.5H17.5V23.5C17.5 23.7652 17.3946 24.0196 17.2071 24.2071C17.0196 24.3946 16.7652 24.5 16.5 24.5C16.2348 24.5 15.9804 24.3946 15.7929 24.2071C15.6054 24.0196 15.5 23.7652 15.5 23.5V22.5H13.5C13.2348 22.5 12.9804 22.3946 12.7929 22.2071C12.6054 22.0196 12.5 21.7652 12.5 21.5C12.5 21.2348 12.6054 20.9804 12.7929 20.7929C12.9804 20.6054 13.2348 20.5 13.5 20.5H18C18.3978 20.5 18.7794 20.342 19.0607 20.0607C19.342 19.7794 19.5 19.3978 19.5 19C19.5 18.6022 19.342 18.2206 19.0607 17.9393C18.7794 17.658 18.3978 17.5 18 17.5H15C14.0717 17.5 13.1815 17.1313 12.5251 16.4749C11.8688 15.8185 11.5 14.9283 11.5 14C11.5 13.0717 11.8688 12.1815 12.5251 11.5251C13.1815 10.8687 14.0717 10.5 15 10.5H15.5V9.5C15.5 9.23478 15.6054 8.98043 15.7929 8.79289C15.9804 8.60536 16.2348 8.5 16.5 8.5C16.7652 8.5 17.0196 8.60536 17.2071 8.79289C17.3946 8.98043 17.5 9.23478 17.5 9.5V10.5H19.5C19.7652 10.5 20.0196 10.6054 20.2071 10.7929C20.3946 10.9804 20.5 11.2348 20.5 11.5C20.5 11.7652 20.3946 12.0196 20.2071 12.2071C20.0196 12.3946 19.7652 12.5 19.5 12.5H15C14.6022 12.5 14.2206 12.658 13.9393 12.9393C13.658 13.2206 13.5 13.6022 13.5 14C13.5 14.3978 13.658 14.7794 13.9393 15.0607C14.2206 15.342 14.6022 15.5 15 15.5H18C18.9283 15.5 19.8185 15.8687 20.4749 16.5251C21.1313 17.1815 21.5 18.0717 21.5 19Z" fill="black"/>
</svg>
