<svg width="33" height="33" viewBox="0 0 33 33" fill="none" xmlns="http://www.w3.org/2000/svg">
<g clip-path="url(#clip0_8_159)">
<path d="M30.5 13.5H28.9137L24.5 9.08625C24.315 8.89972 24.0947 8.75184 23.852 8.6512C23.6093 8.55056 23.349 8.49916 23.0863 8.5H18V5.5H21C21.2652 5.5 21.5196 5.39464 21.7071 5.20711C21.8946 5.01957 22 4.76522 22 4.5C22 4.23478 21.8946 3.98043 21.7071 3.79289C21.5196 3.60536 21.2652 3.5 21 3.5H13C12.7348 3.5 12.4804 3.60536 12.2929 3.79289C12.1054 3.98043 12 4.23478 12 4.5C12 4.76522 12.1054 5.01957 12.2929 5.20711C12.4804 5.39464 12.7348 5.5 13 5.5H16V8.5H8.5C7.96957 8.5 7.46086 8.71071 7.08579 9.08579C6.71071 9.46086 6.5 9.96957 6.5 10.5V17H3.5V14C3.5 13.7348 3.39464 13.4804 3.20711 13.2929C3.01957 13.1054 2.76522 13 2.5 13C2.23478 13 1.98043 13.1054 1.79289 13.2929C1.60536 13.4804 1.5 13.7348 1.5 14V22C1.5 22.2652 1.60536 22.5196 1.79289 22.7071C1.98043 22.8946 2.23478 23 2.5 23C2.76522 23 3.01957 22.8946 3.20711 22.7071C3.39464 22.5196 3.5 22.2652 3.5 22V19H6.5V21.5863C6.49916 21.849 6.55056 22.1093 6.6512 22.352C6.75184 22.5947 6.89972 22.815 7.08625 23L12 27.9137C12.185 28.1003 12.4053 28.2482 12.648 28.3488C12.8907 28.4494 13.151 28.5008 13.4137 28.5H23.0863C23.349 28.5008 23.6093 28.4494 23.852 28.3488C24.0947 28.2482 24.315 28.1003 24.5 27.9137L28.9137 23.5H30.5C31.0304 23.5 31.5391 23.2893 31.9142 22.9142C32.2893 22.5391 32.5 22.0304 32.5 21.5V15.5C32.5 14.9696 32.2893 14.4609 31.9142 14.0858C31.5391 13.7107 31.0304 13.5 30.5 13.5ZM30.5 21.5H28.5C28.3686 21.4999 28.2385 21.5257 28.1171 21.5759C27.9958 21.6261 27.8854 21.6997 27.7925 21.7925L23.0863 26.5H13.4137L8.5 21.5863V10.5H23.0863L27.7925 15.2075C27.8854 15.3003 27.9958 15.3739 28.1171 15.4241C28.2385 15.4743 28.3686 15.5001 28.5 15.5H30.5V21.5Z" fill="black"/>
</g>
<defs>
<clipPath id="clip0_8_159">
<rect width="32" height="32" fill="white" transform="translate(0.5 0.5)"/>
</clipPath>
</defs>
</svg>
