<svg width="33" height="33" viewBox="0 0 33 33" fill="none" xmlns="http://www.w3.org/2000/svg">
<path opacity="0.5" d="M3.62796 15.5C3.33227 14.6461 3.17649 13.7502 3.16663 12.8466C3.16663 4.96663 10.5 1.38397 16.5 7.8333C22.5 1.38397 29.8333 4.9653 29.8333 12.8466C29.8232 13.7501 29.6674 14.6461 29.372 15.5H25.1986C24.4706 15.5 23.8253 15.4973 23.2373 15.76C22.6493 16.0213 22.2173 16.5026 21.7306 17.044L21.6306 17.156L20.2586 18.68C20.2267 18.7158 20.1874 18.7442 20.1434 18.7634C20.0994 18.7826 20.0518 18.7921 20.0038 18.7912C19.9558 18.7904 19.9086 18.7791 19.8654 18.7583C19.8221 18.7375 19.7839 18.7076 19.7533 18.6706L15.02 12.9306C14.8333 12.704 14.6346 12.464 14.44 12.284C14.1626 12.0106 13.7976 11.8439 13.4093 11.8133C13.02 11.7971 12.6375 11.919 12.3293 12.1573C12.116 12.312 11.8893 12.528 11.676 12.7306L9.63596 14.672C9.00796 15.272 8.87596 15.3733 8.73996 15.428C8.60263 15.484 8.43596 15.5 7.56796 15.5H3.62796Z" fill="#9FAAA4"/>
<path d="M29.3721 15.5H25.1987C24.4707 15.4986 23.8254 15.4973 23.2361 15.7586C22.6494 16.0213 22.2174 16.5026 21.7307 17.044L21.6307 17.156L20.2587 18.68C20.2267 18.7159 20.1872 18.7445 20.143 18.7637C20.0989 18.7829 20.0511 18.7924 20.0029 18.7914C19.9548 18.7903 19.9074 18.7789 19.8641 18.7578C19.8208 18.7368 19.7826 18.7066 19.7521 18.6693L15.0187 12.9306C14.8321 12.704 14.6321 12.464 14.4387 12.284C14.1615 12.0101 13.7965 11.8429 13.4081 11.812C13.0184 11.7965 12.6359 11.9193 12.3281 12.1586C12.1134 12.312 11.8867 12.528 11.6747 12.7293L9.63472 14.672C9.00672 15.272 8.87472 15.3733 8.73739 15.428C8.60005 15.4826 8.43472 15.5 7.56672 15.5H3.62805C5.00939 19.64 9.21605 23.692 12.4481 26.3266C14.2254 27.7773 15.1134 28.5 16.5001 28.5C17.8867 28.5 18.7747 27.776 20.5507 26.3266C23.7827 23.692 27.9907 19.64 29.3721 15.5Z" fill="#05400F"/>
</svg>
