<svg width="33" height="33" viewBox="0 0 33 33" fill="none" xmlns="http://www.w3.org/2000/svg">
<path opacity="0.5" d="M3.16663 16.772C3.16663 13.72 3.16663 12.1946 3.85996 10.9306C4.55063 9.66529 5.81596 8.88129 8.34529 7.31063L11.012 5.65596C13.6853 3.99596 15.0226 3.16663 16.5 3.16663C17.9773 3.16663 19.3133 3.99596 21.988 5.65596L24.6546 7.31063C27.184 8.88129 28.4493 9.66529 29.1413 10.9306C29.8333 12.1946 29.8333 13.72 29.8333 16.7706V18.8C29.8333 24 29.8333 26.6013 28.2706 28.2173C26.7093 29.8333 24.1946 29.8333 19.1666 29.8333H13.8333C8.80529 29.8333 6.29063 29.8333 4.72929 28.2173C3.16663 26.6013 3.16663 24.0013 3.16663 18.8V16.772Z" fill="#9FAAA4"/>
<path d="M15.5 24.5C15.5 24.7652 15.6054 25.0196 15.7929 25.2071C15.9804 25.3946 16.2348 25.5 16.5 25.5C16.7652 25.5 17.0196 25.3946 17.2071 25.2071C17.3946 25.0196 17.5 24.7652 17.5 24.5V20.5C17.5 20.2348 17.3946 19.9804 17.2071 19.7929C17.0196 19.6054 16.7652 19.5 16.5 19.5C16.2348 19.5 15.9804 19.6054 15.7929 19.7929C15.6054 19.9804 15.5 20.2348 15.5 20.5V24.5Z" fill="#05400F"/>
</svg>
